<?xml version="1.0" encoding="UTF-8" standalone="no"?>
<!DOCTYPE svg PUBLIC "-//W3C//DTD SVG 1.1//EN"
 "http://www.w3.org/Graphics/SVG/1.1/DTD/svg11.dtd">
<!-- Generated by graphviz version 2.40.1 (20161225.0304)
 -->
<!-- Title: %3 Pages: 1 -->
<svg width="388pt" height="494pt"
 viewBox="0.00 0.00 388.03 494.19" xmlns="http://www.w3.org/2000/svg" xmlns:xlink="http://www.w3.org/1999/xlink">
<g id="graph0" class="graph" transform="scale(1 1) rotate(0) translate(4 490.1949)">
<title>%3</title>
<polygon fill="#ffffff" stroke="transparent" points="-4,4 -4,-490.1949 384.0317,-490.1949 384.0317,4 -4,4"/>
<!-- fake -->
<g id="node1" class="node">
<title>fake</title>
</g>
<!-- [&#39;6&#39;, &#39;7&#39;, &#39;4&#39;, &#39;2&#39;, &#39;0&#39;] -->
<g id="node4" class="node">
<title>[&#39;6&#39;, &#39;7&#39;, &#39;4&#39;, &#39;2&#39;, &#39;0&#39;]</title>
<ellipse fill="none" stroke="#000000" cx="285.1401" cy="-395.1949" rx="94.7833" ry="18"/>
<text text-anchor="middle" x="285.1401" y="-391.4949" font-family="Times,serif" font-size="14.00" fill="#000000">[&#39;6&#39;, &#39;7&#39;, &#39;4&#39;, &#39;2&#39;, &#39;0&#39;]</text>
</g>
<!-- fake&#45;&gt;[&#39;6&#39;, &#39;7&#39;, &#39;4&#39;, &#39;2&#39;, &#39;0&#39;] -->
<g id="edge1" class="edge">
<title>fake&#45;&gt;[&#39;6&#39;, &#39;7&#39;, &#39;4&#39;, &#39;2&#39;, &#39;0&#39;]</title>
<path fill="none" stroke="#000000" stroke-width="2" d="M285.1401,-450.15C285.1401,-442.0778 285.1401,-432.3713 285.1401,-423.3767"/>
<polygon fill="#000000" stroke="#000000" stroke-width="2" points="288.6402,-423.2852 285.1401,-413.2853 281.6402,-423.2853 288.6402,-423.2852"/>
</g>
<!-- [&#39;1&#39;, &#39;7&#39;, &#39;5&#39;, &#39;0&#39;, &#39;4&#39;, &#39;2&#39;] -->
<g id="node2" class="node">
<title>[&#39;1&#39;, &#39;7&#39;, &#39;5&#39;, &#39;0&#39;, &#39;4&#39;, &#39;2&#39;]</title>
<ellipse fill="none" stroke="#000000" cx="111.1401" cy="-308.1949" rx="111.2805" ry="18"/>
<text text-anchor="middle" x="111.1401" y="-304.4949" font-family="Times,serif" font-size="14.00" fill="#000000">[&#39;1&#39;, &#39;7&#39;, &#39;5&#39;, &#39;0&#39;, &#39;4&#39;, &#39;2&#39;]</text>
</g>
<!-- [&#39;1&#39;, &#39;7&#39;, &#39;5&#39;, &#39;0&#39;, &#39;4&#39;, &#39;2&#39;]&#45;&gt;[&#39;1&#39;, &#39;7&#39;, &#39;5&#39;, &#39;0&#39;, &#39;4&#39;, &#39;2&#39;] -->
<g id="edge5" class="edge">
<title>[&#39;1&#39;, &#39;7&#39;, &#39;5&#39;, &#39;0&#39;, &#39;4&#39;, &#39;2&#39;]&#45;&gt;[&#39;1&#39;, &#39;7&#39;, &#39;5&#39;, &#39;0&#39;, &#39;4&#39;, &#39;2&#39;]</title>
<path fill="none" stroke="#000000" d="M212.9171,-315.447C229.1613,-314.3857 240.2803,-311.9684 240.2803,-308.1949 240.2803,-305.2764 233.6288,-303.1691 223.0991,-301.873"/>
<polygon fill="#000000" stroke="#000000" points="223.1941,-298.3672 212.9171,-300.9428 222.5572,-305.3382 223.1941,-298.3672"/>
<text text-anchor="middle" x="244.7803" y="-304.4949" font-family="Times,serif" font-size="14.00" fill="#000000">a</text>
</g>
<!-- [&#39;7&#39;, &#39;5&#39;, &#39;0&#39;, &#39;4&#39;, &#39;3&#39;, &#39;2&#39;] -->
<g id="node3" class="node">
<title>[&#39;7&#39;, &#39;5&#39;, &#39;0&#39;, &#39;4&#39;, &#39;3&#39;, &#39;2&#39;]</title>
<ellipse fill="none" stroke="#000000" cx="156.1401" cy="-221.1949" rx="111.2805" ry="18"/>
<text text-anchor="middle" x="156.1401" y="-217.4949" font-family="Times,serif" font-size="14.00" fill="#000000">[&#39;7&#39;, &#39;5&#39;, &#39;0&#39;, &#39;4&#39;, &#39;3&#39;, &#39;2&#39;]</text>
</g>
<!-- [&#39;1&#39;, &#39;7&#39;, &#39;5&#39;, &#39;0&#39;, &#39;4&#39;, &#39;2&#39;]&#45;&gt;[&#39;7&#39;, &#39;5&#39;, &#39;0&#39;, &#39;4&#39;, &#39;3&#39;, &#39;2&#39;] -->
<g id="edge6" class="edge">
<title>[&#39;1&#39;, &#39;7&#39;, &#39;5&#39;, &#39;0&#39;, &#39;4&#39;, &#39;2&#39;]&#45;&gt;[&#39;7&#39;, &#39;5&#39;, &#39;0&#39;, &#39;4&#39;, &#39;3&#39;, &#39;2&#39;]</title>
<path fill="none" stroke="#000000" d="M112.1767,-289.8884C113.3605,-279.7779 115.8654,-267.2659 121.1401,-257.1949 123.0966,-253.4594 125.5634,-249.8502 128.2779,-246.453"/>
<polygon fill="#000000" stroke="#000000" points="130.9162,-248.753 134.9374,-238.9509 125.6812,-244.106 130.9162,-248.753"/>
<text text-anchor="middle" x="126.1401" y="-260.9949" font-family="Times,serif" font-size="14.00" fill="#000000">b</text>
</g>
<!-- [&#39;9&#39;] -->
<g id="node5" class="node">
<title>[&#39;9&#39;]</title>
<ellipse fill="none" stroke="#000000" cx="156.1401" cy="-119.5975" rx="28.6832" ry="28.6832"/>
<ellipse fill="none" stroke="#000000" cx="156.1401" cy="-119.5975" rx="32.6952" ry="32.6952"/>
<text text-anchor="middle" x="156.1401" y="-115.8975" font-family="Times,serif" font-size="14.00" fill="#000000">[&#39;9&#39;]</text>
</g>
<!-- [&#39;1&#39;, &#39;7&#39;, &#39;5&#39;, &#39;0&#39;, &#39;4&#39;, &#39;2&#39;]&#45;&gt;[&#39;9&#39;] -->
<g id="edge7" class="edge">
<title>[&#39;1&#39;, &#39;7&#39;, &#39;5&#39;, &#39;0&#39;, &#39;4&#39;, &#39;2&#39;]&#45;&gt;[&#39;9&#39;]</title>
<path fill="none" stroke="#000000" d="M80.1512,-290.8327C49.2014,-271.0788 8.6886,-237.1396 27.1401,-203.1949 45.7713,-168.9199 85.1865,-146.5304 115.575,-133.6284"/>
<polygon fill="#000000" stroke="#000000" points="117.1357,-136.7724 125.0864,-129.7698 114.5042,-130.2858 117.1357,-136.7724"/>
<text text-anchor="middle" x="31.6401" y="-217.4949" font-family="Times,serif" font-size="14.00" fill="#000000">c</text>
</g>
<!-- [&#39;7&#39;, &#39;5&#39;, &#39;0&#39;, &#39;4&#39;, &#39;3&#39;, &#39;2&#39;]&#45;&gt;[&#39;1&#39;, &#39;7&#39;, &#39;5&#39;, &#39;0&#39;, &#39;4&#39;, &#39;2&#39;] -->
<g id="edge8" class="edge">
<title>[&#39;7&#39;, &#39;5&#39;, &#39;0&#39;, &#39;4&#39;, &#39;3&#39;, &#39;2&#39;]&#45;&gt;[&#39;1&#39;, &#39;7&#39;, &#39;5&#39;, &#39;0&#39;, &#39;4&#39;, &#39;2&#39;]</title>
<path fill="none" stroke="#000000" d="M147.5704,-239.2458C142.8444,-249.0532 136.802,-261.3575 131.1401,-272.1949 129.6172,-275.11 127.9958,-278.1398 126.3606,-281.149"/>
<polygon fill="#000000" stroke="#000000" points="123.2557,-279.5314 121.4976,-289.9794 129.3874,-282.9082 123.2557,-279.5314"/>
<text text-anchor="middle" x="143.6401" y="-260.9949" font-family="Times,serif" font-size="14.00" fill="#000000">a</text>
</g>
<!-- [&#39;7&#39;, &#39;5&#39;, &#39;0&#39;, &#39;4&#39;, &#39;3&#39;, &#39;2&#39;]&#45;&gt;[&#39;7&#39;, &#39;5&#39;, &#39;0&#39;, &#39;4&#39;, &#39;3&#39;, &#39;2&#39;] -->
<g id="edge9" class="edge">
<title>[&#39;7&#39;, &#39;5&#39;, &#39;0&#39;, &#39;4&#39;, &#39;3&#39;, &#39;2&#39;]&#45;&gt;[&#39;7&#39;, &#39;5&#39;, &#39;0&#39;, &#39;4&#39;, &#39;3&#39;, &#39;2&#39;]</title>
<path fill="none" stroke="#000000" d="M257.9171,-228.447C274.1613,-227.3857 285.2803,-224.9684 285.2803,-221.1949 285.2803,-218.2764 278.6288,-216.1691 268.0991,-214.873"/>
<polygon fill="#000000" stroke="#000000" points="268.1941,-211.3672 257.9171,-213.9428 267.5572,-218.3382 268.1941,-211.3672"/>
<text text-anchor="middle" x="290.2803" y="-217.4949" font-family="Times,serif" font-size="14.00" fill="#000000">b</text>
</g>
<!-- [&#39;7&#39;, &#39;5&#39;, &#39;0&#39;, &#39;4&#39;, &#39;3&#39;, &#39;2&#39;]&#45;&gt;[&#39;9&#39;] -->
<g id="edge10" class="edge">
<title>[&#39;7&#39;, &#39;5&#39;, &#39;0&#39;, &#39;4&#39;, &#39;3&#39;, &#39;2&#39;]&#45;&gt;[&#39;9&#39;]</title>
<path fill="none" stroke="#000000" d="M156.1401,-203.0313C156.1401,-191.7329 156.1401,-176.6993 156.1401,-162.5076"/>
<polygon fill="#000000" stroke="#000000" points="159.6402,-162.3881 156.1401,-152.3882 152.6402,-162.3882 159.6402,-162.3881"/>
<text text-anchor="middle" x="160.6401" y="-173.9949" font-family="Times,serif" font-size="14.00" fill="#000000">c</text>
</g>
<!-- [&#39;6&#39;, &#39;7&#39;, &#39;4&#39;, &#39;2&#39;, &#39;0&#39;]&#45;&gt;[&#39;1&#39;, &#39;7&#39;, &#39;5&#39;, &#39;0&#39;, &#39;4&#39;, &#39;2&#39;] -->
<g id="edge2" class="edge">
<title>[&#39;6&#39;, &#39;7&#39;, &#39;4&#39;, &#39;2&#39;, &#39;0&#39;]&#45;&gt;[&#39;1&#39;, &#39;7&#39;, &#39;5&#39;, &#39;0&#39;, &#39;4&#39;, &#39;2&#39;]</title>
<path fill="none" stroke="#000000" d="M251.1781,-378.2139C223.5725,-364.4111 184.446,-344.8479 154.5648,-329.9073"/>
<polygon fill="#000000" stroke="#000000" points="156.1207,-326.7721 145.6112,-325.4304 152.9902,-333.0331 156.1207,-326.7721"/>
<text text-anchor="middle" x="213.6401" y="-347.9949" font-family="Times,serif" font-size="14.00" fill="#000000">a</text>
</g>
<!-- [&#39;6&#39;, &#39;7&#39;, &#39;4&#39;, &#39;2&#39;, &#39;0&#39;]&#45;&gt;[&#39;7&#39;, &#39;5&#39;, &#39;0&#39;, &#39;4&#39;, &#39;3&#39;, &#39;2&#39;] -->
<g id="edge3" class="edge">
<title>[&#39;6&#39;, &#39;7&#39;, &#39;4&#39;, &#39;2&#39;, &#39;0&#39;]&#45;&gt;[&#39;7&#39;, &#39;5&#39;, &#39;0&#39;, &#39;4&#39;, &#39;3&#39;, &#39;2&#39;]</title>
<path fill="none" stroke="#000000" d="M284.3188,-376.8563C282.4988,-354.5154 276.6802,-316.5047 258.1401,-290.1949 244.2032,-270.4174 222.6555,-254.6417 202.9495,-243.1947"/>
<polygon fill="#000000" stroke="#000000" points="204.498,-240.0509 194.0589,-238.2411 201.0908,-246.1658 204.498,-240.0509"/>
<text text-anchor="middle" x="279.1401" y="-304.4949" font-family="Times,serif" font-size="14.00" fill="#000000">b</text>
</g>
<!-- [&#39;6&#39;, &#39;7&#39;, &#39;4&#39;, &#39;2&#39;, &#39;0&#39;]&#45;&gt;[&#39;9&#39;] -->
<g id="edge4" class="edge">
<title>[&#39;6&#39;, &#39;7&#39;, &#39;4&#39;, &#39;2&#39;, &#39;0&#39;]&#45;&gt;[&#39;9&#39;]</title>
<path fill="none" stroke="#000000" d="M293.5888,-377.0185C308.9514,-341.0605 336.9807,-259.4623 304.1401,-203.1949 281.3652,-164.1735 232.8947,-141.9254 197.6103,-130.3449"/>
<polygon fill="#000000" stroke="#000000" points="198.629,-126.9963 188.0403,-127.3564 196.5424,-133.6781 198.629,-126.9963"/>
<text text-anchor="middle" x="323.6401" y="-260.9949" font-family="Times,serif" font-size="14.00" fill="#000000">c</text>
</g>
<!-- [] -->
<g id="node6" class="node">
<title>[]</title>
<ellipse fill="none" stroke="#000000" cx="156.1401" cy="-18" rx="27" ry="18"/>
<text text-anchor="middle" x="156.1401" y="-14.3" font-family="Times,serif" font-size="14.00" fill="#000000">[]</text>
</g>
<!-- [&#39;9&#39;]&#45;&gt;[] -->
<g id="edge11" class="edge">
<title>[&#39;9&#39;]&#45;&gt;[]</title>
<path fill="none" stroke="#000000" d="M136.466,-93.5747C131.8321,-86.0352 127.5446,-77.5271 125.1401,-69 123.3308,-62.5836 122.82,-60.2499 125.1401,-54 126.9593,-49.0996 129.7775,-44.4193 132.9888,-40.1503"/>
<polygon fill="#000000" stroke="#000000" points="135.6823,-42.3856 139.4891,-32.4982 130.3474,-37.8536 135.6823,-42.3856"/>
<text text-anchor="middle" x="129.6401" y="-57.8" font-family="Times,serif" font-size="14.00" fill="#000000">a</text>
</g>
<!-- [&#39;9&#39;]&#45;&gt;[] -->
<g id="edge12" class="edge">
<title>[&#39;9&#39;]&#45;&gt;[]</title>
<path fill="none" stroke="#000000" d="M156.1401,-86.8921C156.1401,-73.8811 156.1401,-59.0484 156.1401,-46.4872"/>
<polygon fill="#000000" stroke="#000000" points="159.6402,-46.1361 156.1401,-36.1361 152.6402,-46.1362 159.6402,-46.1361"/>
<text text-anchor="middle" x="161.1401" y="-57.8" font-family="Times,serif" font-size="14.00" fill="#000000">b</text>
</g>
<!-- [&#39;9&#39;]&#45;&gt;[] -->
<g id="edge13" class="edge">
<title>[&#39;9&#39;]&#45;&gt;[]</title>
<path fill="none" stroke="#000000" d="M165.4488,-88.2692C167.5918,-77.4286 168.8119,-65.1923 167.1401,-54 166.7289,-51.2469 166.15,-48.4134 165.4706,-45.6024"/>
<polygon fill="#000000" stroke="#000000" points="168.7641,-44.3847 162.6897,-35.7041 162.025,-46.278 168.7641,-44.3847"/>
<text text-anchor="middle" x="172.6401" y="-57.8" font-family="Times,serif" font-size="14.00" fill="#000000">c</text>
</g>
</g>
</svg>
