<?xml version="1.0" encoding="UTF-8" standalone="no"?>
<!DOCTYPE svg PUBLIC "-//W3C//DTD SVG 1.1//EN"
 "http://www.w3.org/Graphics/SVG/1.1/DTD/svg11.dtd">
<!-- Generated by graphviz version 2.40.1 (20161225.0304)
 -->
<!-- Title: %3 Pages: 1 -->
<svg width="426pt" height="407pt"
 viewBox="0.00 0.00 426.49 407.19" xmlns="http://www.w3.org/2000/svg" xmlns:xlink="http://www.w3.org/1999/xlink">
<g id="graph0" class="graph" transform="scale(1 1) rotate(0) translate(4 403.1949)">
<title>%3</title>
<polygon fill="#ffffff" stroke="transparent" points="-4,4 -4,-403.1949 422.489,-403.1949 422.489,4 -4,4"/>
<!-- fake -->
<g id="node1" class="node">
<title>fake</title>
</g>
<!-- [&#39;1&#39;, &#39;2&#39;, &#39;5&#39;, &#39;6&#39;, &#39;7&#39;] -->
<g id="node3" class="node">
<title>[&#39;1&#39;, &#39;2&#39;, &#39;5&#39;, &#39;6&#39;, &#39;7&#39;]</title>
<ellipse fill="none" stroke="#000000" cx="323.5975" cy="-308.1949" rx="94.7833" ry="18"/>
<text text-anchor="middle" x="323.5975" y="-304.4949" font-family="Times,serif" font-size="14.00" fill="#000000">[&#39;1&#39;, &#39;2&#39;, &#39;5&#39;, &#39;6&#39;, &#39;7&#39;]</text>
</g>
<!-- fake&#45;&gt;[&#39;1&#39;, &#39;2&#39;, &#39;5&#39;, &#39;6&#39;, &#39;7&#39;] -->
<g id="edge1" class="edge">
<title>fake&#45;&gt;[&#39;1&#39;, &#39;2&#39;, &#39;5&#39;, &#39;6&#39;, &#39;7&#39;]</title>
<path fill="none" stroke="#000000" stroke-width="2" d="M323.5975,-363.15C323.5975,-355.0778 323.5975,-345.3713 323.5975,-336.3767"/>
<polygon fill="#000000" stroke="#000000" stroke-width="2" points="327.0976,-336.2852 323.5975,-326.2853 320.0976,-336.2853 327.0976,-336.2852"/>
</g>
<!-- [&#39;4&#39;] -->
<g id="node2" class="node">
<title>[&#39;4&#39;]</title>
<ellipse fill="none" stroke="#000000" cx="32.5975" cy="-119.5975" rx="28.6832" ry="28.6832"/>
<ellipse fill="none" stroke="#000000" cx="32.5975" cy="-119.5975" rx="32.6952" ry="32.6952"/>
<text text-anchor="middle" x="32.5975" y="-115.8975" font-family="Times,serif" font-size="14.00" fill="#000000">[&#39;4&#39;]</text>
</g>
<!-- [] -->
<g id="node6" class="node">
<title>[]</title>
<ellipse fill="none" stroke="#000000" cx="97.5975" cy="-18" rx="27" ry="18"/>
<text text-anchor="middle" x="97.5975" y="-14.3" font-family="Times,serif" font-size="14.00" fill="#000000">[]</text>
</g>
<!-- [&#39;4&#39;]&#45;&gt;[] -->
<g id="edge11" class="edge">
<title>[&#39;4&#39;]&#45;&gt;[]</title>
<path fill="none" stroke="#000000" d="M26.7832,-87.4468C26.3177,-76.1813 27.7144,-63.8855 33.5975,-54 40.2189,-42.8737 51.6598,-34.9095 63.0538,-29.3496"/>
<polygon fill="#000000" stroke="#000000" points="64.7391,-32.4331 72.5069,-25.2281 61.9415,-26.0164 64.7391,-32.4331"/>
<text text-anchor="middle" x="38.0975" y="-57.8" font-family="Times,serif" font-size="14.00" fill="#000000">a</text>
</g>
<!-- [&#39;4&#39;]&#45;&gt;[] -->
<g id="edge12" class="edge">
<title>[&#39;4&#39;]&#45;&gt;[]</title>
<path fill="none" stroke="#000000" d="M45.65,-89.6132C51.177,-78.1005 58.0794,-65.0751 65.5975,-54 68.6312,-49.5309 72.1712,-45.0252 75.769,-40.7858"/>
<polygon fill="#000000" stroke="#000000" points="78.6216,-42.8443 82.6407,-33.0413 73.3856,-38.1984 78.6216,-42.8443"/>
<text text-anchor="middle" x="70.5975" y="-57.8" font-family="Times,serif" font-size="14.00" fill="#000000">b</text>
</g>
<!-- [&#39;4&#39;]&#45;&gt;[] -->
<g id="edge13" class="edge">
<title>[&#39;4&#39;]&#45;&gt;[]</title>
<path fill="none" stroke="#000000" d="M55.1489,-96.026C62.2513,-87.8664 69.7581,-78.4009 75.5975,-69 80.2276,-61.546 84.3458,-52.947 87.7311,-44.959"/>
<polygon fill="#000000" stroke="#000000" points="90.9963,-46.2201 91.482,-35.6364 84.5022,-43.6072 90.9963,-46.2201"/>
<text text-anchor="middle" x="88.0975" y="-57.8" font-family="Times,serif" font-size="14.00" fill="#000000">c</text>
</g>
<!-- [&#39;8&#39;, &#39;3&#39;, &#39;2&#39;, &#39;6&#39;, &#39;5&#39;, &#39;1&#39;, &#39;7&#39;] -->
<g id="node4" class="node">
<title>[&#39;8&#39;, &#39;3&#39;, &#39;2&#39;, &#39;6&#39;, &#39;5&#39;, &#39;1&#39;, &#39;7&#39;]</title>
<ellipse fill="none" stroke="#000000" cx="132.5975" cy="-221.1949" rx="128.0773" ry="18"/>
<text text-anchor="middle" x="132.5975" y="-217.4949" font-family="Times,serif" font-size="14.00" fill="#000000">[&#39;8&#39;, &#39;3&#39;, &#39;2&#39;, &#39;6&#39;, &#39;5&#39;, &#39;1&#39;, &#39;7&#39;]</text>
</g>
<!-- [&#39;1&#39;, &#39;2&#39;, &#39;5&#39;, &#39;6&#39;, &#39;7&#39;]&#45;&gt;[&#39;8&#39;, &#39;3&#39;, &#39;2&#39;, &#39;6&#39;, &#39;5&#39;, &#39;1&#39;, &#39;7&#39;] -->
<g id="edge2" class="edge">
<title>[&#39;1&#39;, &#39;2&#39;, &#39;5&#39;, &#39;6&#39;, &#39;7&#39;]&#45;&gt;[&#39;8&#39;, &#39;3&#39;, &#39;2&#39;, &#39;6&#39;, &#39;5&#39;, &#39;1&#39;, &#39;7&#39;]</title>
<path fill="none" stroke="#000000" d="M286.7707,-291.4204C256.3823,-277.5786 213.0531,-257.8423 180.0633,-242.8155"/>
<polygon fill="#000000" stroke="#000000" points="181.1697,-239.4735 170.6184,-238.5134 178.268,-245.8438 181.1697,-239.4735"/>
<text text-anchor="middle" x="243.0975" y="-260.9949" font-family="Times,serif" font-size="14.00" fill="#000000">a</text>
</g>
<!-- [&#39;8&#39;, &#39;2&#39;, &#39;6&#39;, &#39;5&#39;, &#39;1&#39;, &#39;7&#39;] -->
<g id="node5" class="node">
<title>[&#39;8&#39;, &#39;2&#39;, &#39;6&#39;, &#39;5&#39;, &#39;1&#39;, &#39;7&#39;]</title>
<ellipse fill="none" stroke="#000000" cx="194.5975" cy="-119.5975" rx="111.2805" ry="18"/>
<text text-anchor="middle" x="194.5975" y="-115.8975" font-family="Times,serif" font-size="14.00" fill="#000000">[&#39;8&#39;, &#39;2&#39;, &#39;6&#39;, &#39;5&#39;, &#39;1&#39;, &#39;7&#39;]</text>
</g>
<!-- [&#39;1&#39;, &#39;2&#39;, &#39;5&#39;, &#39;6&#39;, &#39;7&#39;]&#45;&gt;[&#39;8&#39;, &#39;2&#39;, &#39;6&#39;, &#39;5&#39;, &#39;1&#39;, &#39;7&#39;] -->
<g id="edge3" class="edge">
<title>[&#39;1&#39;, &#39;2&#39;, &#39;5&#39;, &#39;6&#39;, &#39;7&#39;]&#45;&gt;[&#39;8&#39;, &#39;2&#39;, &#39;6&#39;, &#39;5&#39;, &#39;1&#39;, &#39;7&#39;]</title>
<path fill="none" stroke="#000000" d="M322.3704,-290.1286C320.1415,-268.0619 313.9107,-230.3277 296.5975,-203.1949 280.7233,-178.3173 254.9776,-157.2992 233.3246,-142.5605"/>
<polygon fill="#000000" stroke="#000000" points="235.2238,-139.6203 224.9508,-137.0287 231.3654,-145.461 235.2238,-139.6203"/>
<text text-anchor="middle" x="316.5975" y="-217.4949" font-family="Times,serif" font-size="14.00" fill="#000000">b</text>
</g>
<!-- [&#39;1&#39;, &#39;2&#39;, &#39;5&#39;, &#39;6&#39;, &#39;7&#39;]&#45;&gt;[] -->
<g id="edge4" class="edge">
<title>[&#39;1&#39;, &#39;2&#39;, &#39;5&#39;, &#39;6&#39;, &#39;7&#39;]&#45;&gt;[]</title>
<path fill="none" stroke="#000000" d="M332.4676,-290.2005C351.1715,-249.3953 389.2512,-148.6078 342.5975,-87 317.4422,-53.7816 196.3891,-32.0598 134.3817,-22.9234"/>
<polygon fill="#000000" stroke="#000000" points="134.6395,-19.4246 124.2429,-21.4644 133.6424,-26.3532 134.6395,-19.4246"/>
<text text-anchor="middle" x="369.0975" y="-173.9949" font-family="Times,serif" font-size="14.00" fill="#000000">c</text>
</g>
<!-- [&#39;8&#39;, &#39;3&#39;, &#39;2&#39;, &#39;6&#39;, &#39;5&#39;, &#39;1&#39;, &#39;7&#39;]&#45;&gt;[&#39;4&#39;] -->
<g id="edge7" class="edge">
<title>[&#39;8&#39;, &#39;3&#39;, &#39;2&#39;, &#39;6&#39;, &#39;5&#39;, &#39;1&#39;, &#39;7&#39;]&#45;&gt;[&#39;4&#39;]</title>
<path fill="none" stroke="#000000" d="M114.7195,-203.0313C100.2675,-188.3485 79.6066,-167.3575 62.6243,-150.104"/>
<polygon fill="#000000" stroke="#000000" points="65.1095,-147.6394 55.6003,-142.9677 60.1207,-152.5498 65.1095,-147.6394"/>
<text text-anchor="middle" x="99.0975" y="-173.9949" font-family="Times,serif" font-size="14.00" fill="#000000">c</text>
</g>
<!-- [&#39;8&#39;, &#39;3&#39;, &#39;2&#39;, &#39;6&#39;, &#39;5&#39;, &#39;1&#39;, &#39;7&#39;]&#45;&gt;[&#39;8&#39;, &#39;3&#39;, &#39;2&#39;, &#39;6&#39;, &#39;5&#39;, &#39;1&#39;, &#39;7&#39;] -->
<g id="edge5" class="edge">
<title>[&#39;8&#39;, &#39;3&#39;, &#39;2&#39;, &#39;6&#39;, &#39;5&#39;, &#39;1&#39;, &#39;7&#39;]&#45;&gt;[&#39;8&#39;, &#39;3&#39;, &#39;2&#39;, &#39;6&#39;, &#39;5&#39;, &#39;1&#39;, &#39;7&#39;]</title>
<path fill="none" stroke="#000000" d="M250.3455,-228.2815C267.2621,-227.146 278.6361,-224.7838 278.6361,-221.1949 278.6361,-218.3911 271.694,-216.336 260.5903,-215.0296"/>
<polygon fill="#000000" stroke="#000000" points="260.6189,-211.5181 250.3455,-214.1083 259.9918,-218.49 260.6189,-211.5181"/>
<text text-anchor="middle" x="283.1361" y="-217.4949" font-family="Times,serif" font-size="14.00" fill="#000000">a</text>
</g>
<!-- [&#39;8&#39;, &#39;3&#39;, &#39;2&#39;, &#39;6&#39;, &#39;5&#39;, &#39;1&#39;, &#39;7&#39;]&#45;&gt;[&#39;8&#39;, &#39;2&#39;, &#39;6&#39;, &#39;5&#39;, &#39;1&#39;, &#39;7&#39;] -->
<g id="edge6" class="edge">
<title>[&#39;8&#39;, &#39;3&#39;, &#39;2&#39;, &#39;6&#39;, &#39;5&#39;, &#39;1&#39;, &#39;7&#39;]&#45;&gt;[&#39;8&#39;, &#39;2&#39;, &#39;6&#39;, &#39;5&#39;, &#39;1&#39;, &#39;7&#39;]</title>
<path fill="none" stroke="#000000" d="M139.4979,-203.2171C143.6335,-193.2094 149.3035,-180.6907 155.5975,-170.1949 160.624,-161.8127 166.8114,-153.2056 172.7647,-145.5218"/>
<polygon fill="#000000" stroke="#000000" points="175.5797,-147.6053 179.0669,-137.6008 170.102,-143.247 175.5797,-147.6053"/>
<text text-anchor="middle" x="160.5975" y="-173.9949" font-family="Times,serif" font-size="14.00" fill="#000000">b</text>
</g>
<!-- [&#39;8&#39;, &#39;2&#39;, &#39;6&#39;, &#39;5&#39;, &#39;1&#39;, &#39;7&#39;]&#45;&gt;[&#39;8&#39;, &#39;3&#39;, &#39;2&#39;, &#39;6&#39;, &#39;5&#39;, &#39;1&#39;, &#39;7&#39;] -->
<g id="edge8" class="edge">
<title>[&#39;8&#39;, &#39;2&#39;, &#39;6&#39;, &#39;5&#39;, &#39;1&#39;, &#39;7&#39;]&#45;&gt;[&#39;8&#39;, &#39;3&#39;, &#39;2&#39;, &#39;6&#39;, &#39;5&#39;, &#39;1&#39;, &#39;7&#39;]</title>
<path fill="none" stroke="#000000" d="M188.4368,-137.6612C183.3595,-151.3084 175.4103,-170.1879 165.5975,-185.1949 163.3006,-188.7075 160.6582,-192.2077 157.8898,-195.5689"/>
<polygon fill="#000000" stroke="#000000" points="155.2522,-193.2682 151.3045,-203.1001 160.5218,-197.8759 155.2522,-193.2682"/>
<text text-anchor="middle" x="177.0975" y="-173.9949" font-family="Times,serif" font-size="14.00" fill="#000000">a</text>
</g>
<!-- [&#39;8&#39;, &#39;2&#39;, &#39;6&#39;, &#39;5&#39;, &#39;1&#39;, &#39;7&#39;]&#45;&gt;[&#39;8&#39;, &#39;2&#39;, &#39;6&#39;, &#39;5&#39;, &#39;1&#39;, &#39;7&#39;] -->
<g id="edge9" class="edge">
<title>[&#39;8&#39;, &#39;2&#39;, &#39;6&#39;, &#39;5&#39;, &#39;1&#39;, &#39;7&#39;]&#45;&gt;[&#39;8&#39;, &#39;2&#39;, &#39;6&#39;, &#39;5&#39;, &#39;1&#39;, &#39;7&#39;]</title>
<path fill="none" stroke="#000000" d="M283.9238,-130.3424C306.665,-129.6361 323.7376,-126.0545 323.7376,-119.5975 323.7376,-114.1493 311.5834,-110.7483 294.125,-109.3942"/>
<polygon fill="#000000" stroke="#000000" points="294.0953,-105.8878 283.9238,-108.8526 293.7241,-112.8779 294.0953,-105.8878"/>
<text text-anchor="middle" x="328.7376" y="-115.8975" font-family="Times,serif" font-size="14.00" fill="#000000">b</text>
</g>
<!-- [&#39;8&#39;, &#39;2&#39;, &#39;6&#39;, &#39;5&#39;, &#39;1&#39;, &#39;7&#39;]&#45;&gt;[] -->
<g id="edge10" class="edge">
<title>[&#39;8&#39;, &#39;2&#39;, &#39;6&#39;, &#39;5&#39;, &#39;1&#39;, &#39;7&#39;]&#45;&gt;[]</title>
<path fill="none" stroke="#000000" d="M177.2558,-101.4339C161.044,-84.4537 136.7775,-59.037 119.2902,-40.7209"/>
<polygon fill="#000000" stroke="#000000" points="121.691,-38.1671 112.254,-33.3512 116.628,-43.001 121.691,-38.1671"/>
<text text-anchor="middle" x="151.0975" y="-57.8" font-family="Times,serif" font-size="14.00" fill="#000000">c</text>
</g>
</g>
</svg>
