<?xml version="1.0" encoding="UTF-8" standalone="no"?>
<!DOCTYPE svg PUBLIC "-//W3C//DTD SVG 1.1//EN"
 "http://www.w3.org/Graphics/SVG/1.1/DTD/svg11.dtd">
<!-- Generated by graphviz version 2.40.1 (20161225.0304)
 -->
<!-- Title: %3 Pages: 1 -->
<svg width="389pt" height="494pt"
 viewBox="0.00 0.00 389.03 494.19" xmlns="http://www.w3.org/2000/svg" xmlns:xlink="http://www.w3.org/1999/xlink">
<g id="graph0" class="graph" transform="scale(1 1) rotate(0) translate(4 490.1949)">
<title>%3</title>
<polygon fill="#ffffff" stroke="transparent" points="-4,4 -4,-490.1949 385.0317,-490.1949 385.0317,4 -4,4"/>
<!-- fake -->
<g id="node1" class="node">
<title>fake</title>
</g>
<!-- [&#39;1&#39;, &#39;2&#39;, &#39;5&#39;, &#39;6&#39;, &#39;7&#39;] -->
<g id="node5" class="node">
<title>[&#39;1&#39;, &#39;2&#39;, &#39;5&#39;, &#39;6&#39;, &#39;7&#39;]</title>
<ellipse fill="none" stroke="#000000" cx="286.1401" cy="-395.1949" rx="94.7833" ry="18"/>
<text text-anchor="middle" x="286.1401" y="-391.4949" font-family="Times,serif" font-size="14.00" fill="#000000">[&#39;1&#39;, &#39;2&#39;, &#39;5&#39;, &#39;6&#39;, &#39;7&#39;]</text>
</g>
<!-- fake&#45;&gt;[&#39;1&#39;, &#39;2&#39;, &#39;5&#39;, &#39;6&#39;, &#39;7&#39;] -->
<g id="edge1" class="edge">
<title>fake&#45;&gt;[&#39;1&#39;, &#39;2&#39;, &#39;5&#39;, &#39;6&#39;, &#39;7&#39;]</title>
<path fill="none" stroke="#000000" stroke-width="2" d="M286.1401,-450.15C286.1401,-442.0778 286.1401,-432.3713 286.1401,-423.3767"/>
<polygon fill="#000000" stroke="#000000" stroke-width="2" points="289.6402,-423.2852 286.1401,-413.2853 282.6402,-423.2853 289.6402,-423.2852"/>
</g>
<!-- [&#39;8&#39;, &#39;5&#39;, &#39;1&#39;, &#39;2&#39;, &#39;6&#39;, &#39;7&#39;] -->
<g id="node2" class="node">
<title>[&#39;8&#39;, &#39;5&#39;, &#39;1&#39;, &#39;2&#39;, &#39;6&#39;, &#39;7&#39;]</title>
<ellipse fill="none" stroke="#000000" cx="111.1401" cy="-308.1949" rx="111.2805" ry="18"/>
<text text-anchor="middle" x="111.1401" y="-304.4949" font-family="Times,serif" font-size="14.00" fill="#000000">[&#39;8&#39;, &#39;5&#39;, &#39;1&#39;, &#39;2&#39;, &#39;6&#39;, &#39;7&#39;]</text>
</g>
<!-- [&#39;8&#39;, &#39;5&#39;, &#39;1&#39;, &#39;2&#39;, &#39;6&#39;, &#39;7&#39;]&#45;&gt;[&#39;8&#39;, &#39;5&#39;, &#39;1&#39;, &#39;2&#39;, &#39;6&#39;, &#39;7&#39;] -->
<g id="edge9" class="edge">
<title>[&#39;8&#39;, &#39;5&#39;, &#39;1&#39;, &#39;2&#39;, &#39;6&#39;, &#39;7&#39;]&#45;&gt;[&#39;8&#39;, &#39;5&#39;, &#39;1&#39;, &#39;2&#39;, &#39;6&#39;, &#39;7&#39;]</title>
<path fill="none" stroke="#000000" d="M212.9171,-315.447C229.1613,-314.3857 240.2803,-311.9684 240.2803,-308.1949 240.2803,-305.2764 233.6288,-303.1691 223.0991,-301.873"/>
<polygon fill="#000000" stroke="#000000" points="223.1941,-298.3672 212.9171,-300.9428 222.5572,-305.3382 223.1941,-298.3672"/>
<text text-anchor="middle" x="245.2803" y="-304.4949" font-family="Times,serif" font-size="14.00" fill="#000000">b</text>
</g>
<!-- [&#39;8&#39;, &#39;5&#39;, &#39;3&#39;, &#39;1&#39;, &#39;6&#39;, &#39;2&#39;, &#39;7&#39;] -->
<g id="node3" class="node">
<title>[&#39;8&#39;, &#39;5&#39;, &#39;3&#39;, &#39;1&#39;, &#39;6&#39;, &#39;2&#39;, &#39;7&#39;]</title>
<ellipse fill="none" stroke="#000000" cx="143.1401" cy="-221.1949" rx="128.0773" ry="18"/>
<text text-anchor="middle" x="143.1401" y="-217.4949" font-family="Times,serif" font-size="14.00" fill="#000000">[&#39;8&#39;, &#39;5&#39;, &#39;3&#39;, &#39;1&#39;, &#39;6&#39;, &#39;2&#39;, &#39;7&#39;]</text>
</g>
<!-- [&#39;8&#39;, &#39;5&#39;, &#39;1&#39;, &#39;2&#39;, &#39;6&#39;, &#39;7&#39;]&#45;&gt;[&#39;8&#39;, &#39;5&#39;, &#39;3&#39;, &#39;1&#39;, &#39;6&#39;, &#39;2&#39;, &#39;7&#39;] -->
<g id="edge8" class="edge">
<title>[&#39;8&#39;, &#39;5&#39;, &#39;1&#39;, &#39;2&#39;, &#39;6&#39;, &#39;7&#39;]&#45;&gt;[&#39;8&#39;, &#39;5&#39;, &#39;3&#39;, &#39;1&#39;, &#39;6&#39;, &#39;2&#39;, &#39;7&#39;]</title>
<path fill="none" stroke="#000000" d="M109.0646,-290.1596C108.5873,-280.1339 109.1344,-267.6164 113.1401,-257.1949 114.4737,-253.7254 116.2868,-250.3477 118.3658,-247.1395"/>
<polygon fill="#000000" stroke="#000000" points="121.1875,-249.2104 124.3433,-239.0965 115.5691,-245.0349 121.1875,-249.2104"/>
<text text-anchor="middle" x="117.6401" y="-260.9949" font-family="Times,serif" font-size="14.00" fill="#000000">a</text>
</g>
<!-- [] -->
<g id="node6" class="node">
<title>[]</title>
<ellipse fill="none" stroke="#000000" cx="143.1401" cy="-18" rx="27" ry="18"/>
<text text-anchor="middle" x="143.1401" y="-14.3" font-family="Times,serif" font-size="14.00" fill="#000000">[]</text>
</g>
<!-- [&#39;8&#39;, &#39;5&#39;, &#39;1&#39;, &#39;2&#39;, &#39;6&#39;, &#39;7&#39;]&#45;&gt;[] -->
<g id="edge10" class="edge">
<title>[&#39;8&#39;, &#39;5&#39;, &#39;1&#39;, &#39;2&#39;, &#39;6&#39;, &#39;7&#39;]&#45;&gt;[]</title>
<path fill="none" stroke="#000000" d="M67.5046,-291.5996C44.829,-280.4771 19.189,-263.384 6.1401,-239.1949 -1.4563,-225.1132 1.1305,-218.3904 6.1401,-203.1949 28.5139,-135.3297 86.3938,-71.9825 119.3176,-39.9062"/>
<polygon fill="#000000" stroke="#000000" points="121.9257,-42.2546 126.7237,-32.8084 117.0822,-37.2008 121.9257,-42.2546"/>
<text text-anchor="middle" x="23.6401" y="-173.9949" font-family="Times,serif" font-size="14.00" fill="#000000">c</text>
</g>
<!-- [&#39;8&#39;, &#39;5&#39;, &#39;3&#39;, &#39;1&#39;, &#39;6&#39;, &#39;2&#39;, &#39;7&#39;]&#45;&gt;[&#39;8&#39;, &#39;5&#39;, &#39;1&#39;, &#39;2&#39;, &#39;6&#39;, &#39;7&#39;] -->
<g id="edge6" class="edge">
<title>[&#39;8&#39;, &#39;5&#39;, &#39;3&#39;, &#39;1&#39;, &#39;6&#39;, &#39;2&#39;, &#39;7&#39;]&#45;&gt;[&#39;8&#39;, &#39;5&#39;, &#39;1&#39;, &#39;2&#39;, &#39;6&#39;, &#39;7&#39;]</title>
<path fill="none" stroke="#000000" d="M136.5182,-239.1983C132.1437,-251.0916 126.3236,-266.915 121.3606,-280.4081"/>
<polygon fill="#000000" stroke="#000000" points="117.9378,-279.575 117.7706,-290.1685 124.5075,-281.9914 117.9378,-279.575"/>
<text text-anchor="middle" x="134.1401" y="-260.9949" font-family="Times,serif" font-size="14.00" fill="#000000">b</text>
</g>
<!-- [&#39;8&#39;, &#39;5&#39;, &#39;3&#39;, &#39;1&#39;, &#39;6&#39;, &#39;2&#39;, &#39;7&#39;]&#45;&gt;[&#39;8&#39;, &#39;5&#39;, &#39;3&#39;, &#39;1&#39;, &#39;6&#39;, &#39;2&#39;, &#39;7&#39;] -->
<g id="edge5" class="edge">
<title>[&#39;8&#39;, &#39;5&#39;, &#39;3&#39;, &#39;1&#39;, &#39;6&#39;, &#39;2&#39;, &#39;7&#39;]&#45;&gt;[&#39;8&#39;, &#39;5&#39;, &#39;3&#39;, &#39;1&#39;, &#39;6&#39;, &#39;2&#39;, &#39;7&#39;]</title>
<path fill="none" stroke="#000000" d="M260.8882,-228.2815C277.8048,-227.146 289.1788,-224.7838 289.1788,-221.1949 289.1788,-218.3911 282.2366,-216.336 271.133,-215.0296"/>
<polygon fill="#000000" stroke="#000000" points="271.1615,-211.5181 260.8882,-214.1083 270.5345,-218.49 271.1615,-211.5181"/>
<text text-anchor="middle" x="293.6788" y="-217.4949" font-family="Times,serif" font-size="14.00" fill="#000000">a</text>
</g>
<!-- [&#39;4&#39;] -->
<g id="node4" class="node">
<title>[&#39;4&#39;]</title>
<ellipse fill="none" stroke="#000000" cx="143.1401" cy="-119.5975" rx="28.6832" ry="28.6832"/>
<ellipse fill="none" stroke="#000000" cx="143.1401" cy="-119.5975" rx="32.6952" ry="32.6952"/>
<text text-anchor="middle" x="143.1401" y="-115.8975" font-family="Times,serif" font-size="14.00" fill="#000000">[&#39;4&#39;]</text>
</g>
<!-- [&#39;8&#39;, &#39;5&#39;, &#39;3&#39;, &#39;1&#39;, &#39;6&#39;, &#39;2&#39;, &#39;7&#39;]&#45;&gt;[&#39;4&#39;] -->
<g id="edge7" class="edge">
<title>[&#39;8&#39;, &#39;5&#39;, &#39;3&#39;, &#39;1&#39;, &#39;6&#39;, &#39;2&#39;, &#39;7&#39;]&#45;&gt;[&#39;4&#39;]</title>
<path fill="none" stroke="#000000" d="M143.1401,-203.0313C143.1401,-191.7329 143.1401,-176.6993 143.1401,-162.5076"/>
<polygon fill="#000000" stroke="#000000" points="146.6402,-162.3881 143.1401,-152.3882 139.6402,-162.3882 146.6402,-162.3881"/>
<text text-anchor="middle" x="147.6401" y="-173.9949" font-family="Times,serif" font-size="14.00" fill="#000000">c</text>
</g>
<!-- [&#39;4&#39;]&#45;&gt;[] -->
<g id="edge11" class="edge">
<title>[&#39;4&#39;]&#45;&gt;[]</title>
<path fill="none" stroke="#000000" d="M143.1401,-86.8921C143.1401,-73.8811 143.1401,-59.0484 143.1401,-46.4872"/>
<polygon fill="#000000" stroke="#000000" points="146.6402,-46.1361 143.1401,-36.1361 139.6402,-46.1362 146.6402,-46.1361"/>
<text text-anchor="middle" x="147.6401" y="-57.8" font-family="Times,serif" font-size="14.00" fill="#000000">a</text>
</g>
<!-- [&#39;4&#39;]&#45;&gt;[] -->
<g id="edge12" class="edge">
<title>[&#39;4&#39;]&#45;&gt;[]</title>
<path fill="none" stroke="#000000" d="M151.6676,-87.9299C153.5792,-77.1714 154.6493,-65.072 153.1401,-54 152.767,-51.2624 152.2412,-48.4392 151.6238,-45.6347"/>
<polygon fill="#000000" stroke="#000000" points="154.9635,-44.5669 149.0961,-35.7451 148.1815,-46.3004 154.9635,-44.5669"/>
<text text-anchor="middle" x="159.1401" y="-57.8" font-family="Times,serif" font-size="14.00" fill="#000000">b</text>
</g>
<!-- [&#39;4&#39;]&#45;&gt;[] -->
<g id="edge13" class="edge">
<title>[&#39;4&#39;]&#45;&gt;[]</title>
<path fill="none" stroke="#000000" d="M132.2331,-88.6178C129.6538,-77.697 128.1586,-65.3217 130.1401,-54 130.6449,-51.1159 131.3611,-48.1581 132.2009,-45.2374"/>
<polygon fill="#000000" stroke="#000000" points="135.5675,-46.2051 135.4049,-35.6115 128.9258,-43.9943 135.5675,-46.2051"/>
<text text-anchor="middle" x="134.6401" y="-57.8" font-family="Times,serif" font-size="14.00" fill="#000000">c</text>
</g>
<!-- [&#39;1&#39;, &#39;2&#39;, &#39;5&#39;, &#39;6&#39;, &#39;7&#39;]&#45;&gt;[&#39;8&#39;, &#39;5&#39;, &#39;1&#39;, &#39;2&#39;, &#39;6&#39;, &#39;7&#39;] -->
<g id="edge3" class="edge">
<title>[&#39;1&#39;, &#39;2&#39;, &#39;5&#39;, &#39;6&#39;, &#39;7&#39;]&#45;&gt;[&#39;8&#39;, &#39;5&#39;, &#39;1&#39;, &#39;2&#39;, &#39;6&#39;, &#39;7&#39;]</title>
<path fill="none" stroke="#000000" d="M251.9829,-378.2139C224.2186,-364.4111 184.8673,-344.8479 154.8144,-329.9073"/>
<polygon fill="#000000" stroke="#000000" points="156.3219,-326.7481 145.8093,-325.4304 153.2057,-333.0162 156.3219,-326.7481"/>
<text text-anchor="middle" x="214.1401" y="-347.9949" font-family="Times,serif" font-size="14.00" fill="#000000">b</text>
</g>
<!-- [&#39;1&#39;, &#39;2&#39;, &#39;5&#39;, &#39;6&#39;, &#39;7&#39;]&#45;&gt;[&#39;8&#39;, &#39;5&#39;, &#39;3&#39;, &#39;1&#39;, &#39;6&#39;, &#39;2&#39;, &#39;7&#39;] -->
<g id="edge2" class="edge">
<title>[&#39;1&#39;, &#39;2&#39;, &#39;5&#39;, &#39;6&#39;, &#39;7&#39;]&#45;&gt;[&#39;8&#39;, &#39;5&#39;, &#39;3&#39;, &#39;1&#39;, &#39;6&#39;, &#39;2&#39;, &#39;7&#39;]</title>
<path fill="none" stroke="#000000" d="M285.5963,-377.068C284.0662,-354.5972 278.5501,-316.1052 259.1401,-290.1949 243.5898,-269.4368 219.8007,-253.7299 197.8045,-242.5868"/>
<polygon fill="#000000" stroke="#000000" points="199.0422,-239.2975 188.5165,-238.0892 195.9914,-245.5977 199.0422,-239.2975"/>
<text text-anchor="middle" x="281.6401" y="-304.4949" font-family="Times,serif" font-size="14.00" fill="#000000">a</text>
</g>
<!-- [&#39;1&#39;, &#39;2&#39;, &#39;5&#39;, &#39;6&#39;, &#39;7&#39;]&#45;&gt;[] -->
<g id="edge4" class="edge">
<title>[&#39;1&#39;, &#39;2&#39;, &#39;5&#39;, &#39;6&#39;, &#39;7&#39;]&#45;&gt;[]</title>
<path fill="none" stroke="#000000" d="M302.9282,-377.4187C316.77,-360.8479 334.1401,-334.7607 334.1401,-308.1949 334.1401,-308.1949 334.1401,-308.1949 334.1401,-119.5975 334.1401,-50.6154 235.8303,-28.3201 180.2722,-21.2281"/>
<polygon fill="#000000" stroke="#000000" points="180.4397,-17.7239 170.1007,-20.0379 179.6261,-24.6765 180.4397,-17.7239"/>
<text text-anchor="middle" x="338.6401" y="-217.4949" font-family="Times,serif" font-size="14.00" fill="#000000">c</text>
</g>
</g>
</svg>
