<?xml version="1.0" encoding="UTF-8" standalone="no"?>
<!DOCTYPE svg PUBLIC "-//W3C//DTD SVG 1.1//EN"
 "http://www.w3.org/Graphics/SVG/1.1/DTD/svg11.dtd">
<!-- Generated by graphviz version 2.40.1 (20161225.0304)
 -->
<!-- Title: %3 Pages: 1 -->
<svg width="255pt" height="1373pt"
 viewBox="0.00 0.00 255.00 1373.50" xmlns="http://www.w3.org/2000/svg" xmlns:xlink="http://www.w3.org/1999/xlink">
<g id="graph0" class="graph" transform="scale(1 1) rotate(0) translate(4 1369.496)">
<title>%3</title>
<polygon fill="#ffffff" stroke="transparent" points="-4,4 -4,-1369.496 251,-1369.496 251,4 -4,4"/>
<!-- fake0 -->
<g id="node1" class="node">
<title>fake0</title>
</g>
<!-- 18 -->
<g id="node10" class="node">
<title>18</title>
<ellipse fill="none" stroke="#000000" cx="175" cy="-1274.496" rx="27" ry="18"/>
<text text-anchor="middle" x="175" y="-1270.796" font-family="Times,serif" font-size="14.00" fill="#000000">18</text>
</g>
<!-- fake0&#45;&gt;18 -->
<g id="edge1" class="edge">
<title>fake0&#45;&gt;18</title>
<path fill="none" stroke="#000000" stroke-width="2" d="M175,-1329.451C175,-1321.3788 175,-1311.6723 175,-1302.6777"/>
<polygon fill="#000000" stroke="#000000" stroke-width="2" points="178.5001,-1302.5863 175,-1292.5863 171.5001,-1302.5864 178.5001,-1302.5863"/>
</g>
<!-- 0 -->
<g id="node2" class="node">
<title>0</title>
<ellipse fill="none" stroke="#000000" cx="27" cy="-1100.496" rx="27" ry="18"/>
<text text-anchor="middle" x="27" y="-1096.796" font-family="Times,serif" font-size="14.00" fill="#000000">0</text>
</g>
<!-- 1 -->
<g id="node9" class="node">
<title>1</title>
<ellipse fill="none" stroke="#000000" cx="27" cy="-1013.496" rx="27" ry="18"/>
<text text-anchor="middle" x="27" y="-1009.796" font-family="Times,serif" font-size="14.00" fill="#000000">1</text>
</g>
<!-- 0&#45;&gt;1 -->
<g id="edge2" class="edge">
<title>0&#45;&gt;1</title>
<path fill="none" stroke="#000000" d="M27,-1082.4695C27,-1070.6877 27,-1055.0566 27,-1041.654"/>
<polygon fill="#000000" stroke="#000000" points="30.5001,-1041.4993 27,-1031.4993 23.5001,-1041.4994 30.5001,-1041.4993"/>
<text text-anchor="middle" x="32" y="-1053.296" font-family="Times,serif" font-size="14.00" fill="#000000">0</text>
</g>
<!-- 15 -->
<g id="node3" class="node">
<title>15</title>
<ellipse fill="none" stroke="#000000" cx="99" cy="-644.496" rx="27" ry="18"/>
<text text-anchor="middle" x="99" y="-640.796" font-family="Times,serif" font-size="14.00" fill="#000000">15</text>
</g>
<!-- 17 -->
<g id="node20" class="node">
<title>17</title>
<ellipse fill="none" stroke="#000000" cx="123" cy="-557.496" rx="27" ry="18"/>
<text text-anchor="middle" x="123" y="-553.796" font-family="Times,serif" font-size="14.00" fill="#000000">17</text>
</g>
<!-- 15&#45;&gt;17 -->
<g id="edge12" class="edge">
<title>15&#45;&gt;17</title>
<path fill="none" stroke="#000000" d="M103.9728,-626.4695C107.277,-614.4918 111.6787,-598.5355 115.4162,-584.9871"/>
<polygon fill="#000000" stroke="#000000" points="118.8303,-585.7724 118.1157,-575.2017 112.0823,-583.9108 118.8303,-585.7724"/>
<text text-anchor="middle" x="124.5" y="-597.296" font-family="Times,serif" font-size="14.00" fill="#000000">eps</text>
</g>
<!-- 16 -->
<g id="node4" class="node">
<title>16</title>
<ellipse fill="none" stroke="#000000" cx="127" cy="-1187.496" rx="27" ry="18"/>
<text text-anchor="middle" x="127" y="-1183.796" font-family="Times,serif" font-size="14.00" fill="#000000">16</text>
</g>
<!-- 16&#45;&gt;0 -->
<g id="edge10" class="edge">
<title>16&#45;&gt;0</title>
<path fill="none" stroke="#000000" d="M108.7762,-1173.8554C100.1985,-1167.2786 89.9177,-1159.1678 81,-1151.496 70.3553,-1142.3384 58.9962,-1131.7441 49.4562,-1122.592"/>
<polygon fill="#000000" stroke="#000000" points="51.8652,-1120.0527 42.2438,-1115.6165 46.9987,-1125.0844 51.8652,-1120.0527"/>
<text text-anchor="middle" x="93.5" y="-1140.296" font-family="Times,serif" font-size="14.00" fill="#000000">eps</text>
</g>
<!-- 6 -->
<g id="node11" class="node">
<title>6</title>
<ellipse fill="none" stroke="#000000" cx="99" cy="-1100.496" rx="27" ry="18"/>
<text text-anchor="middle" x="99" y="-1096.796" font-family="Times,serif" font-size="14.00" fill="#000000">6</text>
</g>
<!-- 16&#45;&gt;6 -->
<g id="edge11" class="edge">
<title>16&#45;&gt;6</title>
<path fill="none" stroke="#000000" d="M120.9555,-1169.5713C119.0303,-1163.807 116.9061,-1157.3881 115,-1151.496 112.565,-1143.9691 109.9775,-1135.7996 107.609,-1128.2502"/>
<polygon fill="#000000" stroke="#000000" points="110.8728,-1126.9599 104.55,-1118.4585 104.1913,-1129.0473 110.8728,-1126.9599"/>
<text text-anchor="middle" x="127.5" y="-1140.296" font-family="Times,serif" font-size="14.00" fill="#000000">eps</text>
</g>
<!-- 13 -->
<g id="node5" class="node">
<title>13</title>
<ellipse fill="none" stroke="#000000" cx="99" cy="-731.496" rx="27" ry="18"/>
<text text-anchor="middle" x="99" y="-727.796" font-family="Times,serif" font-size="14.00" fill="#000000">13</text>
</g>
<!-- 13&#45;&gt;15 -->
<g id="edge9" class="edge">
<title>13&#45;&gt;15</title>
<path fill="none" stroke="#000000" d="M99,-713.4695C99,-701.6877 99,-686.0566 99,-672.654"/>
<polygon fill="#000000" stroke="#000000" points="102.5001,-672.4993 99,-662.4993 95.5001,-672.4994 102.5001,-672.4993"/>
<text text-anchor="middle" x="104" y="-684.296" font-family="Times,serif" font-size="14.00" fill="#000000">1</text>
</g>
<!-- 7 -->
<g id="node6" class="node">
<title>7</title>
<ellipse fill="none" stroke="#000000" cx="99" cy="-1013.496" rx="27" ry="18"/>
<text text-anchor="middle" x="99" y="-1009.796" font-family="Times,serif" font-size="14.00" fill="#000000">7</text>
</g>
<!-- 9 -->
<g id="node22" class="node">
<title>9</title>
<ellipse fill="none" stroke="#000000" cx="99" cy="-926.496" rx="27" ry="18"/>
<text text-anchor="middle" x="99" y="-922.796" font-family="Times,serif" font-size="14.00" fill="#000000">9</text>
</g>
<!-- 7&#45;&gt;9 -->
<g id="edge6" class="edge">
<title>7&#45;&gt;9</title>
<path fill="none" stroke="#000000" d="M99,-995.4695C99,-983.6877 99,-968.0566 99,-954.654"/>
<polygon fill="#000000" stroke="#000000" points="102.5001,-954.4993 99,-944.4993 95.5001,-954.4994 102.5001,-954.4993"/>
<text text-anchor="middle" x="104" y="-966.296" font-family="Times,serif" font-size="14.00" fill="#000000">0</text>
</g>
<!-- 22 -->
<g id="node7" class="node">
<title>22</title>
<ellipse fill="none" stroke="#000000" cx="95" cy="-296.496" rx="27" ry="18"/>
<text text-anchor="middle" x="95" y="-292.796" font-family="Times,serif" font-size="14.00" fill="#000000">22</text>
</g>
<!-- 23 -->
<g id="node16" class="node">
<title>23</title>
<ellipse fill="none" stroke="#000000" cx="95" cy="-209.496" rx="27" ry="18"/>
<text text-anchor="middle" x="95" y="-205.796" font-family="Times,serif" font-size="14.00" fill="#000000">23</text>
</g>
<!-- 22&#45;&gt;23 -->
<g id="edge19" class="edge">
<title>22&#45;&gt;23</title>
<path fill="none" stroke="#000000" d="M95,-278.4695C95,-266.6877 95,-251.0566 95,-237.654"/>
<polygon fill="#000000" stroke="#000000" points="98.5001,-237.4993 95,-227.4993 91.5001,-237.4994 98.5001,-237.4993"/>
<text text-anchor="middle" x="100" y="-249.296" font-family="Times,serif" font-size="14.00" fill="#000000">1</text>
</g>
<!-- 11 -->
<g id="node8" class="node">
<title>11</title>
<ellipse fill="none" stroke="#000000" cx="99" cy="-839.496" rx="27" ry="18"/>
<text text-anchor="middle" x="99" y="-835.796" font-family="Times,serif" font-size="14.00" fill="#000000">11</text>
</g>
<!-- 11&#45;&gt;13 -->
<g id="edge8" class="edge">
<title>11&#45;&gt;13</title>
<path fill="none" stroke="#000000" d="M99,-821.1752C99,-804.3169 99,-779.0611 99,-759.643"/>
<polygon fill="#000000" stroke="#000000" points="102.5001,-759.5461 99,-749.5461 95.5001,-759.5462 102.5001,-759.5461"/>
<text text-anchor="middle" x="104" y="-781.796" font-family="Times,serif" font-size="14.00" fill="#000000">0</text>
</g>
<!-- 3 -->
<g id="node17" class="node">
<title>3</title>
<ellipse fill="none" stroke="#000000" cx="27" cy="-926.496" rx="27" ry="18"/>
<text text-anchor="middle" x="27" y="-922.796" font-family="Times,serif" font-size="14.00" fill="#000000">3</text>
</g>
<!-- 1&#45;&gt;3 -->
<g id="edge3" class="edge">
<title>1&#45;&gt;3</title>
<path fill="none" stroke="#000000" d="M27,-995.4695C27,-983.6877 27,-968.0566 27,-954.654"/>
<polygon fill="#000000" stroke="#000000" points="30.5001,-954.4993 27,-944.4993 23.5001,-954.4994 30.5001,-954.4993"/>
<text text-anchor="middle" x="32" y="-966.296" font-family="Times,serif" font-size="14.00" fill="#000000">1</text>
</g>
<!-- 18&#45;&gt;16 -->
<g id="edge15" class="edge">
<title>18&#45;&gt;16</title>
<path fill="none" stroke="#000000" d="M165.5167,-1257.3076C158.6138,-1244.7959 149.1443,-1227.6325 141.3223,-1213.4551"/>
<polygon fill="#000000" stroke="#000000" points="144.3589,-1211.7137 136.4636,-1204.6487 138.2299,-1215.0952 144.3589,-1211.7137"/>
<text text-anchor="middle" x="165.5" y="-1227.296" font-family="Times,serif" font-size="14.00" fill="#000000">eps</text>
</g>
<!-- 19 -->
<g id="node14" class="node">
<title>19</title>
<ellipse fill="none" stroke="#000000" cx="175" cy="-470.496" rx="27" ry="18"/>
<text text-anchor="middle" x="175" y="-466.796" font-family="Times,serif" font-size="14.00" fill="#000000">19</text>
</g>
<!-- 18&#45;&gt;19 -->
<g id="edge14" class="edge">
<title>18&#45;&gt;19</title>
<path fill="none" stroke="#000000" d="M183.6916,-1257.3202C191.5845,-1240.1125 202,-1212.6415 202,-1187.496 202,-1187.496 202,-1187.496 202,-557.496 202,-536.4758 194.7218,-513.8308 187.723,-496.9143"/>
<polygon fill="#000000" stroke="#000000" points="190.8977,-495.4385 183.6916,-487.6718 184.4815,-498.2371 190.8977,-495.4385"/>
<text text-anchor="middle" x="214.5" y="-879.296" font-family="Times,serif" font-size="14.00" fill="#000000">eps</text>
</g>
<!-- 6&#45;&gt;7 -->
<g id="edge5" class="edge">
<title>6&#45;&gt;7</title>
<path fill="none" stroke="#000000" d="M99,-1082.4695C99,-1070.6877 99,-1055.0566 99,-1041.654"/>
<polygon fill="#000000" stroke="#000000" points="102.5001,-1041.4993 99,-1031.4993 95.5001,-1041.4994 102.5001,-1041.4993"/>
<text text-anchor="middle" x="104" y="-1053.296" font-family="Times,serif" font-size="14.00" fill="#000000">1</text>
</g>
<!-- 25 -->
<g id="node12" class="node">
<title>25</title>
<ellipse fill="none" stroke="#000000" cx="143" cy="-122.496" rx="27" ry="18"/>
<text text-anchor="middle" x="143" y="-118.796" font-family="Times,serif" font-size="14.00" fill="#000000">25</text>
</g>
<!-- 24 -->
<g id="node15" class="node">
<title>24</title>
<ellipse fill="none" stroke="#000000" cx="128" cy="-383.496" rx="27" ry="18"/>
<text text-anchor="middle" x="128" y="-379.796" font-family="Times,serif" font-size="14.00" fill="#000000">24</text>
</g>
<!-- 25&#45;&gt;24 -->
<g id="edge27" class="edge">
<title>25&#45;&gt;24</title>
<path fill="none" stroke="#000000" d="M121.0976,-133.2372C100.7537,-144.5723 71.7431,-164.5374 59,-191.496 35.6381,-240.9193 38.08,-263.9905 59,-314.496 67.4239,-334.8332 85.0726,-352.3015 100.4114,-364.5739"/>
<polygon fill="#000000" stroke="#000000" points="98.5498,-367.5561 108.6221,-370.8425 102.7977,-361.9922 98.5498,-367.5561"/>
<text text-anchor="middle" x="55.5" y="-249.296" font-family="Times,serif" font-size="14.00" fill="#000000">eps</text>
</g>
<!-- 27 -->
<g id="node19" class="node">
<title>27</title>
<ellipse fill="none" stroke="#000000" cx="195" cy="-26.748" rx="22.9609" ry="22.9609"/>
<ellipse fill="none" stroke="#000000" cx="195" cy="-26.748" rx="26.9983" ry="26.9983"/>
<text text-anchor="middle" x="195" y="-23.048" font-family="Times,serif" font-size="14.00" fill="#000000">27</text>
</g>
<!-- 25&#45;&gt;27 -->
<g id="edge26" class="edge">
<title>25&#45;&gt;27</title>
<path fill="none" stroke="#000000" d="M152.2966,-105.3781C159.1671,-92.7274 168.7362,-75.1077 177.075,-59.7534"/>
<polygon fill="#000000" stroke="#000000" points="180.3761,-61.0087 182.073,-50.5506 174.2247,-57.6679 180.3761,-61.0087"/>
<text text-anchor="middle" x="182.5" y="-75.296" font-family="Times,serif" font-size="14.00" fill="#000000">eps</text>
</g>
<!-- 20 -->
<g id="node13" class="node">
<title>20</title>
<ellipse fill="none" stroke="#000000" cx="167" cy="-296.496" rx="27" ry="18"/>
<text text-anchor="middle" x="167" y="-292.796" font-family="Times,serif" font-size="14.00" fill="#000000">20</text>
</g>
<!-- 21 -->
<g id="node21" class="node">
<title>21</title>
<ellipse fill="none" stroke="#000000" cx="167" cy="-209.496" rx="27" ry="18"/>
<text text-anchor="middle" x="167" y="-205.796" font-family="Times,serif" font-size="14.00" fill="#000000">21</text>
</g>
<!-- 20&#45;&gt;21 -->
<g id="edge18" class="edge">
<title>20&#45;&gt;21</title>
<path fill="none" stroke="#000000" d="M167,-278.4695C167,-266.6877 167,-251.0566 167,-237.654"/>
<polygon fill="#000000" stroke="#000000" points="170.5001,-237.4993 167,-227.4993 163.5001,-237.4994 170.5001,-237.4993"/>
<text text-anchor="middle" x="172" y="-249.296" font-family="Times,serif" font-size="14.00" fill="#000000">0</text>
</g>
<!-- 19&#45;&gt;24 -->
<g id="edge25" class="edge">
<title>19&#45;&gt;24</title>
<path fill="none" stroke="#000000" d="M165.7143,-453.3076C158.9551,-440.7959 149.683,-423.6325 142.0239,-409.4551"/>
<polygon fill="#000000" stroke="#000000" points="145.0989,-407.7833 137.2664,-400.6487 138.9401,-411.1105 145.0989,-407.7833"/>
<text text-anchor="middle" x="166.5" y="-423.296" font-family="Times,serif" font-size="14.00" fill="#000000">eps</text>
</g>
<!-- 19&#45;&gt;27 -->
<g id="edge24" class="edge">
<title>19&#45;&gt;27</title>
<path fill="none" stroke="#000000" d="M189.3569,-455.1694C203.1788,-438.759 222,-411.307 222,-383.496 222,-383.496 222,-383.496 222,-122.496 222,-101.5115 215.9181,-78.8782 209.5274,-60.8881"/>
<polygon fill="#000000" stroke="#000000" points="212.7641,-59.5508 205.9819,-51.4112 206.2079,-62.0037 212.7641,-59.5508"/>
<text text-anchor="middle" x="234.5" y="-249.296" font-family="Times,serif" font-size="14.00" fill="#000000">eps</text>
</g>
<!-- 24&#45;&gt;22 -->
<g id="edge21" class="edge">
<title>24&#45;&gt;22</title>
<path fill="none" stroke="#000000" d="M117.5064,-366.7245C114.1257,-360.8089 110.5882,-354.0072 108,-347.496 105.1227,-340.2573 102.7201,-332.1841 100.7951,-324.6349"/>
<polygon fill="#000000" stroke="#000000" points="104.175,-323.7184 98.4665,-314.7929 97.363,-325.3301 104.175,-323.7184"/>
<text text-anchor="middle" x="120.5" y="-336.296" font-family="Times,serif" font-size="14.00" fill="#000000">eps</text>
</g>
<!-- 24&#45;&gt;20 -->
<g id="edge20" class="edge">
<title>24&#45;&gt;20</title>
<path fill="none" stroke="#000000" d="M135.8922,-365.8902C141.3728,-353.6643 148.7768,-337.1477 154.9866,-323.2951"/>
<polygon fill="#000000" stroke="#000000" points="158.3558,-324.3354 159.2526,-313.7786 151.9682,-321.472 158.3558,-324.3354"/>
<text text-anchor="middle" x="161.5" y="-336.296" font-family="Times,serif" font-size="14.00" fill="#000000">eps</text>
</g>
<!-- 23&#45;&gt;25 -->
<g id="edge22" class="edge">
<title>23&#45;&gt;25</title>
<path fill="none" stroke="#000000" d="M104.4833,-192.3076C111.3862,-179.7959 120.8557,-162.6325 128.6777,-148.4551"/>
<polygon fill="#000000" stroke="#000000" points="131.7701,-150.0952 133.5364,-139.6487 125.6411,-146.7137 131.7701,-150.0952"/>
<text text-anchor="middle" x="133.5" y="-162.296" font-family="Times,serif" font-size="14.00" fill="#000000">eps</text>
</g>
<!-- 5 -->
<g id="node18" class="node">
<title>5</title>
<ellipse fill="none" stroke="#000000" cx="39" cy="-785.496" rx="27" ry="18"/>
<text text-anchor="middle" x="39" y="-781.796" font-family="Times,serif" font-size="14.00" fill="#000000">5</text>
</g>
<!-- 3&#45;&gt;5 -->
<g id="edge4" class="edge">
<title>3&#45;&gt;5</title>
<path fill="none" stroke="#000000" d="M28.5442,-908.3513C30.5874,-884.3445 34.2097,-841.7821 36.6082,-813.5995"/>
<polygon fill="#000000" stroke="#000000" points="40.101,-813.8318 37.4617,-803.5709 33.1262,-813.2381 40.101,-813.8318"/>
<text text-anchor="middle" x="37" y="-879.296" font-family="Times,serif" font-size="14.00" fill="#000000">0</text>
</g>
<!-- 5&#45;&gt;17 -->
<g id="edge13" class="edge">
<title>5&#45;&gt;17</title>
<path fill="none" stroke="#000000" d="M38.5191,-767.3985C38.3916,-736.8829 41.1057,-673.8875 63,-626.496 71.3253,-608.4753 85.8333,-591.5963 98.4974,-579.0433"/>
<polygon fill="#000000" stroke="#000000" points="101.2542,-581.2506 106.0726,-571.8149 96.4216,-576.1863 101.2542,-581.2506"/>
<text text-anchor="middle" x="59.5" y="-684.296" font-family="Times,serif" font-size="14.00" fill="#000000">eps</text>
</g>
<!-- 17&#45;&gt;16 -->
<g id="edge17" class="edge">
<title>17&#45;&gt;16</title>
<path fill="none" stroke="#000000" d="M132.9792,-574.5214C142.0415,-591.6149 154,-619.0013 154,-644.496 154,-1100.496 154,-1100.496 154,-1100.496 154,-1121.5161 146.7218,-1144.1612 139.723,-1161.0776"/>
<polygon fill="#000000" stroke="#000000" points="136.4815,-1159.7548 135.6916,-1170.3202 142.8977,-1162.5534 136.4815,-1159.7548"/>
<text text-anchor="middle" x="166.5" y="-879.296" font-family="Times,serif" font-size="14.00" fill="#000000">eps</text>
</g>
<!-- 17&#45;&gt;19 -->
<g id="edge16" class="edge">
<title>17&#45;&gt;19</title>
<path fill="none" stroke="#000000" d="M133.0261,-540.7215C140.5796,-528.084 151.0698,-510.5331 159.6732,-496.1388"/>
<polygon fill="#000000" stroke="#000000" points="162.8784,-497.5982 165.0047,-487.2189 156.8699,-494.0069 162.8784,-497.5982"/>
<text text-anchor="middle" x="164.5" y="-510.296" font-family="Times,serif" font-size="14.00" fill="#000000">eps</text>
</g>
<!-- 21&#45;&gt;25 -->
<g id="edge23" class="edge">
<title>21&#45;&gt;25</title>
<path fill="none" stroke="#000000" d="M162.0272,-191.4695C158.723,-179.4918 154.3213,-163.5355 150.5838,-149.9871"/>
<polygon fill="#000000" stroke="#000000" points="153.9177,-148.9108 147.8843,-140.2017 147.1697,-150.7724 153.9177,-148.9108"/>
<text text-anchor="middle" x="168.5" y="-162.296" font-family="Times,serif" font-size="14.00" fill="#000000">eps</text>
</g>
<!-- 9&#45;&gt;11 -->
<g id="edge7" class="edge">
<title>9&#45;&gt;11</title>
<path fill="none" stroke="#000000" d="M99,-908.4695C99,-896.6877 99,-881.0566 99,-867.654"/>
<polygon fill="#000000" stroke="#000000" points="102.5001,-867.4993 99,-857.4993 95.5001,-867.4994 102.5001,-867.4993"/>
<text text-anchor="middle" x="104" y="-879.296" font-family="Times,serif" font-size="14.00" fill="#000000">1</text>
</g>
</g>
</svg>
