<?xml version="1.0" encoding="UTF-8" standalone="no"?>
<!DOCTYPE svg PUBLIC "-//W3C//DTD SVG 1.1//EN"
 "http://www.w3.org/Graphics/SVG/1.1/DTD/svg11.dtd">
<!-- Generated by graphviz version 2.40.1 (20161225.0304)
 -->
<!-- Title: %3 Pages: 1 -->
<svg width="1032pt" height="734pt"
 viewBox="0.00 0.00 1032.00 734.00" xmlns="http://www.w3.org/2000/svg" xmlns:xlink="http://www.w3.org/1999/xlink">
<g id="graph0" class="graph" transform="scale(1 1) rotate(0) translate(4 730)">
<title>%3</title>
<polygon fill="#ffffff" stroke="transparent" points="-4,4 -4,-730 1028,-730 1028,4 -4,4"/>
<!-- fake0 -->
<g id="node1" class="node">
<title>fake0</title>
</g>
<!-- 6 -->
<g id="node2" class="node">
<title>6</title>
<ellipse fill="none" stroke="#000000" cx="76" cy="-635" rx="27" ry="18"/>
<text text-anchor="middle" x="76" y="-631.3" font-family="Times,serif" font-size="14.00" fill="#000000">6</text>
</g>
<!-- fake0&#45;&gt;6 -->
<g id="edge1" class="edge">
<title>fake0&#45;&gt;6</title>
<path fill="none" stroke="#000000" stroke-width="2" d="M76,-689.9551C76,-681.8828 76,-672.1764 76,-663.1817"/>
<polygon fill="#000000" stroke="#000000" stroke-width="2" points="79.5001,-663.0903 76,-653.0904 72.5001,-663.0904 79.5001,-663.0903"/>
</g>
<!-- 4 -->
<g id="node6" class="node">
<title>4</title>
<ellipse fill="none" stroke="#000000" cx="206" cy="-548" rx="27" ry="18"/>
<text text-anchor="middle" x="206" y="-544.3" font-family="Times,serif" font-size="14.00" fill="#000000">4</text>
</g>
<!-- 6&#45;&gt;4 -->
<g id="edge26" class="edge">
<title>6&#45;&gt;4</title>
<path fill="none" stroke="#000000" d="M95.1819,-622.1629C117.1683,-607.4489 153.3849,-583.2117 178.4,-566.4708"/>
<polygon fill="#000000" stroke="#000000" points="180.3753,-569.3603 186.7394,-560.8898 176.4821,-563.5429 180.3753,-569.3603"/>
<text text-anchor="middle" x="158.5" y="-587.8" font-family="Times,serif" font-size="14.00" fill="#000000">eps</text>
</g>
<!-- 7 -->
<g id="node10" class="node">
<title>7</title>
<ellipse fill="none" stroke="#000000" cx="675" cy="-200" rx="27" ry="18"/>
<text text-anchor="middle" x="675" y="-196.3" font-family="Times,serif" font-size="14.00" fill="#000000">7</text>
</g>
<!-- 6&#45;&gt;7 -->
<g id="edge27" class="edge">
<title>6&#45;&gt;7</title>
<path fill="none" stroke="#000000" d="M103.0159,-633.3341C209.1868,-626.4334 592,-598.0798 592,-548 592,-548 592,-548 592,-417.5 592,-397.6673 640.7938,-280.3841 663.5579,-226.7463"/>
<polygon fill="#000000" stroke="#000000" points="666.7934,-228.0815 667.4879,-217.5094 660.3522,-225.3409 666.7934,-228.0815"/>
<text text-anchor="middle" x="601.5" y="-413.8" font-family="Times,serif" font-size="14.00" fill="#000000">eps</text>
</g>
<!-- [] -->
<g id="node11" class="node">
<title>[]</title>
<ellipse fill="none" stroke="#000000" cx="532" cy="-18" rx="27" ry="18"/>
<text text-anchor="middle" x="532" y="-14.3" font-family="Times,serif" font-size="14.00" fill="#000000">[]</text>
</g>
<!-- 6&#45;&gt;[] -->
<g id="edge23" class="edge">
<title>6&#45;&gt;[]</title>
<path fill="none" stroke="#000000" d="M54.7743,-623.8289C44.4719,-617.5947 32.514,-609.056 24,-599 7.8129,-579.8811 0,-573.0511 0,-548 0,-548 0,-548 0,-109 0,-82.3296 2.217,-69.3887 24,-54 62.1701,-27.0346 383.801,-20.0547 494.6377,-18.4416"/>
<polygon fill="#000000" stroke="#000000" points="494.7388,-21.9406 504.6892,-18.3018 494.6414,-14.9413 494.7388,-21.9406"/>
<text text-anchor="middle" x="3.5" y="-326.8" font-family="Times,serif" font-size="14.00" fill="#000000">a</text>
</g>
<!-- 6&#45;&gt;[] -->
<g id="edge24" class="edge">
<title>6&#45;&gt;[]</title>
<path fill="none" stroke="#000000" d="M63.9766,-618.5981C52.8438,-601.7629 38,-574.3713 38,-548 38,-548 38,-548 38,-109 38,-82.3296 40.261,-69.4507 62,-54 96.9455,-29.1631 389.6051,-20.8656 494.6509,-18.6724"/>
<polygon fill="#000000" stroke="#000000" points="494.8646,-22.1689 504.7919,-18.4676 494.7232,-15.1703 494.8646,-22.1689"/>
<text text-anchor="middle" x="42" y="-326.8" font-family="Times,serif" font-size="14.00" fill="#000000">b</text>
</g>
<!-- 6&#45;&gt;[] -->
<g id="edge25" class="edge">
<title>6&#45;&gt;[]</title>
<path fill="none" stroke="#000000" d="M76,-616.6694C76,-599.0629 76,-571.7135 76,-548 76,-548 76,-548 76,-109 76,-74.7432 99.0345,-68.6515 130,-54 162.5144,-38.6156 401.499,-24.7499 494.8179,-19.8642"/>
<polygon fill="#000000" stroke="#000000" points="495.1326,-23.3527 504.938,-19.3398 494.7703,-16.3621 495.1326,-23.3527"/>
<text text-anchor="middle" x="79.5" y="-326.8" font-family="Times,serif" font-size="14.00" fill="#000000">c</text>
</g>
<!-- 3 -->
<g id="node3" class="node">
<title>3</title>
<ellipse fill="none" stroke="#000000" cx="410" cy="-374" rx="27" ry="18"/>
<text text-anchor="middle" x="410" y="-370.3" font-family="Times,serif" font-size="14.00" fill="#000000">3</text>
</g>
<!-- 5 -->
<g id="node8" class="node">
<title>5</title>
<ellipse fill="none" stroke="#000000" cx="526" cy="-287" rx="27" ry="18"/>
<text text-anchor="middle" x="526" y="-283.3" font-family="Times,serif" font-size="14.00" fill="#000000">5</text>
</g>
<!-- 3&#45;&gt;5 -->
<g id="edge18" class="edge">
<title>3&#45;&gt;5</title>
<path fill="none" stroke="#000000" d="M429.9798,-361.7151C440.5866,-354.997 453.7239,-346.3598 465,-338 477.5816,-328.6723 490.9931,-317.5948 502.0274,-308.1507"/>
<polygon fill="#000000" stroke="#000000" points="504.3176,-310.7974 509.5961,-301.6111 499.741,-305.5007 504.3176,-310.7974"/>
<text text-anchor="middle" x="492.5" y="-326.8" font-family="Times,serif" font-size="14.00" fill="#000000">eps</text>
</g>
<!-- 3&#45;&gt;[] -->
<g id="edge15" class="edge">
<title>3&#45;&gt;[]</title>
<path fill="none" stroke="#000000" d="M417.26,-356.5724C419.5669,-350.723 422.0285,-344.1284 424,-338 463.9112,-213.9363 433.2127,-167.648 497,-54 499.8265,-48.964 503.5341,-44.1236 507.4775,-39.7147"/>
<polygon fill="#000000" stroke="#000000" points="510.2291,-41.9055 514.6907,-32.2959 505.2102,-37.0258 510.2291,-41.9055"/>
<text text-anchor="middle" x="455.5" y="-196.3" font-family="Times,serif" font-size="14.00" fill="#000000">a</text>
</g>
<!-- 3&#45;&gt;[] -->
<g id="edge16" class="edge">
<title>3&#45;&gt;[]</title>
<path fill="none" stroke="#000000" d="M396.3193,-358.2077C383.403,-341.6357 366,-314.2508 366,-287 366,-287 366,-287 366,-109 366,-81.1556 374.0907,-71.184 396,-54 411.3701,-41.9448 460.6271,-30.9 495.4243,-24.3092"/>
<polygon fill="#000000" stroke="#000000" points="496.5076,-27.6684 505.7057,-22.4105 495.2364,-20.7848 496.5076,-27.6684"/>
<text text-anchor="middle" x="370" y="-196.3" font-family="Times,serif" font-size="14.00" fill="#000000">b</text>
</g>
<!-- 3&#45;&gt;[] -->
<g id="edge17" class="edge">
<title>3&#45;&gt;[]</title>
<path fill="none" stroke="#000000" d="M410,-355.6694C410,-338.0629 410,-310.7135 410,-287 410,-287 410,-287 410,-109 410,-65.2832 460.9552,-40.0646 497.004,-27.6935"/>
<polygon fill="#000000" stroke="#000000" points="498.2901,-30.9559 506.7215,-24.5402 496.1295,-24.2977 498.2901,-30.9559"/>
<text text-anchor="middle" x="413.5" y="-196.3" font-family="Times,serif" font-size="14.00" fill="#000000">c</text>
</g>
<!-- 9 -->
<g id="node4" class="node">
<title>9</title>
<ellipse fill="none" stroke="#000000" cx="652" cy="-109" rx="18" ry="18"/>
<ellipse fill="none" stroke="#000000" cx="652" cy="-109" rx="22" ry="22"/>
<text text-anchor="middle" x="652" y="-105.3" font-family="Times,serif" font-size="14.00" fill="#000000">9</text>
</g>
<!-- 9&#45;&gt;[] -->
<g id="edge37" class="edge">
<title>9&#45;&gt;[]</title>
<path fill="none" stroke="#000000" d="M669.2024,-95.2052C681.5258,-83.6464 694.2788,-66.9976 684,-54 669.918,-36.1933 609.2413,-26.2799 568.9395,-21.5516"/>
<polygon fill="#000000" stroke="#000000" points="569.2489,-18.0645 558.9222,-20.4329 568.472,-25.0213 569.2489,-18.0645"/>
<text text-anchor="middle" x="690.5" y="-57.8" font-family="Times,serif" font-size="14.00" fill="#000000">a</text>
</g>
<!-- 9&#45;&gt;[] -->
<g id="edge38" class="edge">
<title>9&#45;&gt;[]</title>
<path fill="none" stroke="#000000" d="M634.5885,-95.3138C620.2733,-84.1095 599.4215,-67.8986 581,-54 573.8531,-48.6078 566.0635,-42.8372 558.8416,-37.5306"/>
<polygon fill="#000000" stroke="#000000" points="560.8325,-34.6505 550.6968,-31.565 556.6961,-40.2977 560.8325,-34.6505"/>
<text text-anchor="middle" x="604" y="-57.8" font-family="Times,serif" font-size="14.00" fill="#000000">b</text>
</g>
<!-- 9&#45;&gt;[] -->
<g id="edge39" class="edge">
<title>9&#45;&gt;[]</title>
<path fill="none" stroke="#000000" d="M641.2882,-89.4437C634.196,-77.9281 624.003,-63.7547 612,-54 598.62,-43.1263 581.4301,-34.8299 566.416,-28.9576"/>
<polygon fill="#000000" stroke="#000000" points="567.5189,-25.6338 556.9257,-25.446 565.0896,-32.1988 567.5189,-25.6338"/>
<text text-anchor="middle" x="629.5" y="-57.8" font-family="Times,serif" font-size="14.00" fill="#000000">c</text>
</g>
<!-- 9&#45;&gt;[] -->
<g id="edge40" class="edge">
<title>9&#45;&gt;[]</title>
<path fill="none" stroke="#000000" d="M650.7628,-86.8069C649.0543,-75.7111 645.2604,-62.8071 637,-54 619.3942,-35.2289 591.5827,-26.2454 569.0048,-21.9461"/>
<polygon fill="#000000" stroke="#000000" points="569.4952,-18.4796 559.0548,-20.282 568.3405,-25.3837 569.4952,-18.4796"/>
<text text-anchor="middle" x="654.5" y="-57.8" font-family="Times,serif" font-size="14.00" fill="#000000">eps</text>
</g>
<!-- 0 -->
<g id="node5" class="node">
<title>0</title>
<ellipse fill="none" stroke="#000000" cx="844" cy="-461" rx="27" ry="18"/>
<text text-anchor="middle" x="844" y="-457.3" font-family="Times,serif" font-size="14.00" fill="#000000">0</text>
</g>
<!-- 1 -->
<g id="node9" class="node">
<title>1</title>
<ellipse fill="none" stroke="#000000" cx="949" cy="-374" rx="27" ry="18"/>
<text text-anchor="middle" x="949" y="-370.3" font-family="Times,serif" font-size="14.00" fill="#000000">1</text>
</g>
<!-- 0&#45;&gt;1 -->
<g id="edge2" class="edge">
<title>0&#45;&gt;1</title>
<path fill="none" stroke="#000000" d="M863.801,-448.3802C873.7402,-441.7767 885.8033,-433.3449 896,-425 906.6541,-416.2807 917.7345,-405.8602 926.9926,-396.7177"/>
<polygon fill="#000000" stroke="#000000" points="929.7049,-398.9547 934.2914,-389.4041 924.7501,-394.01 929.7049,-398.9547"/>
<text text-anchor="middle" x="915.5" y="-413.8" font-family="Times,serif" font-size="14.00" fill="#000000">a</text>
</g>
<!-- 0&#45;&gt;[] -->
<g id="edge3" class="edge">
<title>0&#45;&gt;[]</title>
<path fill="none" stroke="#000000" d="M827.0452,-446.7281C789.9296,-414.7974 700.3131,-333.8678 644,-251 589.7921,-171.2301 597.5709,-139.5287 553,-54 551.2591,-50.6593 549.3578,-47.1885 547.4332,-43.7787"/>
<polygon fill="#000000" stroke="#000000" points="550.4107,-41.9358 542.379,-35.0262 544.3489,-45.4363 550.4107,-41.9358"/>
<text text-anchor="middle" x="648" y="-239.8" font-family="Times,serif" font-size="14.00" fill="#000000">b</text>
</g>
<!-- 0&#45;&gt;[] -->
<g id="edge4" class="edge">
<title>0&#45;&gt;[]</title>
<path fill="none" stroke="#000000" d="M844,-442.6694C844,-425.0629 844,-397.7135 844,-374 844,-374 844,-374 844,-109 844,-52.2528 651.3799,-28.5007 568.8346,-20.9274"/>
<polygon fill="#000000" stroke="#000000" points="569.1413,-17.4409 558.871,-20.0431 568.5224,-24.4135 569.1413,-17.4409"/>
<text text-anchor="middle" x="847.5" y="-239.8" font-family="Times,serif" font-size="14.00" fill="#000000">c</text>
</g>
<!-- 0&#45;&gt;[] -->
<g id="edge5" class="edge">
<title>0&#45;&gt;[]</title>
<path fill="none" stroke="#000000" d="M856.0234,-444.5981C867.1563,-427.7629 882,-400.3713 882,-374 882,-374 882,-374 882,-109 882,-44.908 659.3842,-25.1658 569.2356,-19.7987"/>
<polygon fill="#000000" stroke="#000000" points="569.3552,-16.2999 559.1727,-19.2269 568.958,-23.2886 569.3552,-16.2999"/>
<text text-anchor="middle" x="891.5" y="-239.8" font-family="Times,serif" font-size="14.00" fill="#000000">eps</text>
</g>
<!-- 4&#45;&gt;0 -->
<g id="edge13" class="edge">
<title>4&#45;&gt;0</title>
<path fill="none" stroke="#000000" d="M232.9282,-545.5558C289.1636,-540.3408 423.14,-527.3395 535,-512 633.8868,-498.4395 749.8447,-478.1022 807.5419,-467.6802"/>
<polygon fill="#000000" stroke="#000000" points="808.4046,-471.081 817.62,-465.8535 807.156,-464.1932 808.4046,-471.081"/>
<text text-anchor="middle" x="637.5" y="-500.8" font-family="Times,serif" font-size="14.00" fill="#000000">eps</text>
</g>
<!-- 2 -->
<g id="node7" class="node">
<title>2</title>
<ellipse fill="none" stroke="#000000" cx="282" cy="-461" rx="27" ry="18"/>
<text text-anchor="middle" x="282" y="-457.3" font-family="Times,serif" font-size="14.00" fill="#000000">2</text>
</g>
<!-- 4&#45;&gt;2 -->
<g id="edge14" class="edge">
<title>4&#45;&gt;2</title>
<path fill="none" stroke="#000000" d="M219.9396,-532.0429C231.5821,-518.7152 248.3435,-499.5278 261.513,-484.4522"/>
<polygon fill="#000000" stroke="#000000" points="264.4615,-486.397 268.4045,-476.5633 259.1897,-481.7918 264.4615,-486.397"/>
<text text-anchor="middle" x="258.5" y="-500.8" font-family="Times,serif" font-size="14.00" fill="#000000">eps</text>
</g>
<!-- 4&#45;&gt;[] -->
<g id="edge10" class="edge">
<title>4&#45;&gt;[]</title>
<path fill="none" stroke="#000000" d="M183.93,-537.2258C159.0422,-523.3459 122,-496.6923 122,-461 122,-461 122,-461 122,-109 122,-81.3657 128.0358,-69.3721 151,-54 179.1812,-35.1357 404.7452,-23.4632 494.9323,-19.5098"/>
<polygon fill="#000000" stroke="#000000" points="495.1475,-23.0039 504.9876,-19.0766 494.8461,-16.0104 495.1475,-23.0039"/>
<text text-anchor="middle" x="125.5" y="-283.3" font-family="Times,serif" font-size="14.00" fill="#000000">a</text>
</g>
<!-- 4&#45;&gt;[] -->
<g id="edge11" class="edge">
<title>4&#45;&gt;[]</title>
<path fill="none" stroke="#000000" d="M193.2521,-532.0557C181.2164,-515.3626 165,-487.8828 165,-461 165,-461 165,-461 165,-109 165,-81.7689 169.6796,-69.5991 192,-54 216.4371,-36.9216 411.9245,-24.4768 494.9329,-19.9114"/>
<polygon fill="#000000" stroke="#000000" points="495.1482,-23.4049 504.9442,-19.3691 494.7695,-16.4152 495.1482,-23.4049"/>
<text text-anchor="middle" x="169" y="-283.3" font-family="Times,serif" font-size="14.00" fill="#000000">b</text>
</g>
<!-- 4&#45;&gt;[] -->
<g id="edge12" class="edge">
<title>4&#45;&gt;[]</title>
<path fill="none" stroke="#000000" d="M204.1395,-529.8351C196.1368,-447.0897 168.5666,-107.5593 249,-54 288.4246,-27.7478 426.9132,-20.6279 494.4292,-18.7057"/>
<polygon fill="#000000" stroke="#000000" points="494.7243,-22.1993 504.6297,-18.4397 494.5418,-15.2017 494.7243,-22.1993"/>
<text text-anchor="middle" x="197.5" y="-283.3" font-family="Times,serif" font-size="14.00" fill="#000000">c</text>
</g>
<!-- 2&#45;&gt;3 -->
<g id="edge7" class="edge">
<title>2&#45;&gt;3</title>
<path fill="none" stroke="#000000" d="M301.1629,-447.9752C322.6542,-433.3678 357.7013,-409.5467 382.2015,-392.8943"/>
<polygon fill="#000000" stroke="#000000" points="384.4031,-395.6299 390.7061,-387.1138 380.4681,-389.8405 384.4031,-395.6299"/>
<text text-anchor="middle" x="357" y="-413.8" font-family="Times,serif" font-size="14.00" fill="#000000">b</text>
</g>
<!-- 2&#45;&gt;[] -->
<g id="edge6" class="edge">
<title>2&#45;&gt;[]</title>
<path fill="none" stroke="#000000" d="M269.9766,-444.5981C258.8438,-427.7629 244,-400.3713 244,-374 244,-374 244,-374 244,-109 244,-82.3296 246.7268,-70.086 268,-54 302.9508,-27.5715 430.7573,-20.5435 494.8418,-18.6756"/>
<polygon fill="#000000" stroke="#000000" points="495.0211,-22.1722 504.9251,-18.4092 494.8361,-15.1746 495.0211,-22.1722"/>
<text text-anchor="middle" x="247.5" y="-239.8" font-family="Times,serif" font-size="14.00" fill="#000000">a</text>
</g>
<!-- 2&#45;&gt;[] -->
<g id="edge8" class="edge">
<title>2&#45;&gt;[]</title>
<path fill="none" stroke="#000000" d="M282,-442.6694C282,-425.0629 282,-397.7135 282,-374 282,-374 282,-374 282,-109 282,-82.3296 284.9086,-70.3236 306,-54 334.7795,-31.7262 438.1004,-22.8956 494.5417,-19.6744"/>
<polygon fill="#000000" stroke="#000000" points="495.0407,-23.1527 504.8378,-19.1194 494.6638,-16.1629 495.0407,-23.1527"/>
<text text-anchor="middle" x="285.5" y="-239.8" font-family="Times,serif" font-size="14.00" fill="#000000">c</text>
</g>
<!-- 2&#45;&gt;[] -->
<g id="edge9" class="edge">
<title>2&#45;&gt;[]</title>
<path fill="none" stroke="#000000" d="M294.0234,-444.5981C305.1563,-427.7629 320,-400.3713 320,-374 320,-374 320,-374 320,-109 320,-74.4303 344.7522,-70.7372 375,-54 412.5339,-33.2312 461.458,-24.4262 494.6452,-20.7045"/>
<polygon fill="#000000" stroke="#000000" points="495.2394,-24.1622 504.8329,-19.666 494.5295,-17.1982 495.2394,-24.1622"/>
<text text-anchor="middle" x="329.5" y="-239.8" font-family="Times,serif" font-size="14.00" fill="#000000">eps</text>
</g>
<!-- 5&#45;&gt;4 -->
<g id="edge31" class="edge">
<title>5&#45;&gt;4</title>
<path fill="none" stroke="#000000" d="M521.1993,-304.9948C517.9325,-315.2431 512.9325,-327.9931 506,-338 485.5697,-367.4909 474.1589,-369.7696 446,-392 372.267,-450.2094 352.0108,-462.7744 272,-512 260.6228,-518.9997 247.794,-526.1563 236.4925,-532.2258"/>
<polygon fill="#000000" stroke="#000000" points="234.6147,-529.26 227.424,-537.0411 237.8975,-535.4425 234.6147,-529.26"/>
<text text-anchor="middle" x="431.5" y="-413.8" font-family="Times,serif" font-size="14.00" fill="#000000">eps</text>
</g>
<!-- 5&#45;&gt;7 -->
<g id="edge32" class="edge">
<title>5&#45;&gt;7</title>
<path fill="none" stroke="#000000" d="M541.5281,-271.6857C553.279,-260.7022 570.211,-246.1171 587,-236 603.9006,-225.8156 624.2054,-217.2929 641.0502,-211.1006"/>
<polygon fill="#000000" stroke="#000000" points="642.2705,-214.3815 650.5165,-207.7291 639.9218,-207.7872 642.2705,-214.3815"/>
<text text-anchor="middle" x="596.5" y="-239.8" font-family="Times,serif" font-size="14.00" fill="#000000">eps</text>
</g>
<!-- 5&#45;&gt;[] -->
<g id="edge28" class="edge">
<title>5&#45;&gt;[]</title>
<path fill="none" stroke="#000000" d="M518.4479,-269.6599C516.1215,-263.8164 513.7222,-257.2031 512,-251 501.5035,-213.1929 500.3455,-203.0943 497,-164 493.7418,-125.9255 497.9008,-75.5193 506,-54 507.5276,-49.9413 509.6391,-45.9281 512.0043,-42.1365"/>
<polygon fill="#000000" stroke="#000000" points="514.9852,-43.9804 517.8277,-33.7739 509.2408,-39.9801 514.9852,-43.9804"/>
<text text-anchor="middle" x="500.5" y="-152.8" font-family="Times,serif" font-size="14.00" fill="#000000">a</text>
</g>
<!-- 5&#45;&gt;[] -->
<g id="edge29" class="edge">
<title>5&#45;&gt;[]</title>
<path fill="none" stroke="#000000" d="M526.403,-268.9325C527.4253,-223.1012 530.1258,-102.0274 531.3637,-46.5271"/>
<polygon fill="#000000" stroke="#000000" points="534.8669,-46.4187 531.5909,-36.3431 527.8686,-46.2626 534.8669,-46.4187"/>
<text text-anchor="middle" x="533" y="-152.8" font-family="Times,serif" font-size="14.00" fill="#000000">b</text>
</g>
<!-- 5&#45;&gt;[] -->
<g id="edge30" class="edge">
<title>5&#45;&gt;[]</title>
<path fill="none" stroke="#000000" d="M533.5121,-269.3459C535.6493,-263.5961 537.7374,-257.1174 539,-251 553.7376,-179.5944 548.7572,-159.6829 543,-87 541.9224,-73.3959 539.6676,-58.4233 537.4784,-45.9122"/>
<polygon fill="#000000" stroke="#000000" points="540.92,-45.2754 535.6821,-36.0659 534.0337,-46.5317 540.92,-45.2754"/>
<text text-anchor="middle" x="551.5" y="-152.8" font-family="Times,serif" font-size="14.00" fill="#000000">c</text>
</g>
<!-- 1&#45;&gt;5 -->
<g id="edge22" class="edge">
<title>1&#45;&gt;5</title>
<path fill="none" stroke="#000000" d="M923.1762,-368.6887C850.7571,-353.794 645.5864,-311.5958 562.0539,-294.4153"/>
<polygon fill="#000000" stroke="#000000" points="562.5234,-290.9387 552.0233,-292.3523 561.1131,-297.7952 562.5234,-290.9387"/>
<text text-anchor="middle" x="771.5" y="-326.8" font-family="Times,serif" font-size="14.00" fill="#000000">eps</text>
</g>
<!-- 1&#45;&gt;[] -->
<g id="edge19" class="edge">
<title>1&#45;&gt;[]</title>
<path fill="none" stroke="#000000" d="M968.3042,-361.1016C988.408,-345.9565 1017,-318.823 1017,-287 1017,-287 1017,-287 1017,-109 1017,-81.3657 1011.082,-69.1945 988,-54 953.4055,-31.227 672.3735,-21.6631 569.5267,-18.9029"/>
<polygon fill="#000000" stroke="#000000" points="569.3842,-15.398 559.296,-18.6351 569.201,-22.3956 569.3842,-15.398"/>
<text text-anchor="middle" x="1020.5" y="-196.3" font-family="Times,serif" font-size="14.00" fill="#000000">a</text>
</g>
<!-- 1&#45;&gt;[] -->
<g id="edge20" class="edge">
<title>1&#45;&gt;[]</title>
<path fill="none" stroke="#000000" d="M948.7656,-355.6212C947.5699,-293.8822 940.2878,-95.4757 896,-54 872.4773,-31.9709 657.3812,-22.2419 569.323,-19.1576"/>
<polygon fill="#000000" stroke="#000000" points="569.3487,-15.6565 559.2353,-18.814 569.1104,-22.6525 569.3487,-15.6565"/>
<text text-anchor="middle" x="944" y="-196.3" font-family="Times,serif" font-size="14.00" fill="#000000">b</text>
</g>
<!-- 1&#45;&gt;[] -->
<g id="edge21" class="edge">
<title>1&#45;&gt;[]</title>
<path fill="none" stroke="#000000" d="M957.0478,-356.7561C964.3561,-339.4967 974,-311.9875 974,-287 974,-287 974,-287 974,-109 974,-73.1512 947.7035,-68.6839 915,-54 853.7971,-26.5199 652.7673,-19.9998 569.0761,-18.4661"/>
<polygon fill="#000000" stroke="#000000" points="569.0597,-14.9655 559.0018,-18.2955 568.941,-21.9645 569.0597,-14.9655"/>
<text text-anchor="middle" x="977.5" y="-196.3" font-family="Times,serif" font-size="14.00" fill="#000000">c</text>
</g>
<!-- 7&#45;&gt;9 -->
<g id="edge35" class="edge">
<title>7&#45;&gt;9</title>
<path fill="none" stroke="#000000" d="M670.4559,-182.0213C667.443,-170.1007 663.4098,-154.143 659.8822,-140.186"/>
<polygon fill="#000000" stroke="#000000" points="663.2685,-139.3005 657.4247,-130.4631 656.4819,-141.0159 663.2685,-139.3005"/>
<text text-anchor="middle" x="668.5" y="-152.8" font-family="Times,serif" font-size="14.00" fill="#000000">c</text>
</g>
<!-- 7&#45;&gt;[] -->
<g id="edge33" class="edge">
<title>7&#45;&gt;[]</title>
<path fill="none" stroke="#000000" d="M685.1573,-182.9908C701.3984,-153.3395 728.4425,-91.7521 698,-54 682.1053,-34.2888 612.8338,-24.8229 568.9518,-20.7268"/>
<polygon fill="#000000" stroke="#000000" points="569.1969,-17.2349 558.928,-19.8427 568.5818,-24.2079 569.1969,-17.2349"/>
<text text-anchor="middle" x="714.5" y="-105.3" font-family="Times,serif" font-size="14.00" fill="#000000">a</text>
</g>
<!-- 7&#45;&gt;[] -->
<g id="edge34" class="edge">
<title>7&#45;&gt;[]</title>
<path fill="none" stroke="#000000" d="M692.1523,-185.9577C698.79,-179.7963 705.9814,-172.1203 711,-164 736.7289,-122.3697 750.3735,-88.8357 716,-54 695.9675,-33.6981 617.1364,-24.3216 569.396,-20.4262"/>
<polygon fill="#000000" stroke="#000000" points="569.3764,-16.9143 559.1366,-19.634 568.8374,-23.8935 569.3764,-16.9143"/>
<text text-anchor="middle" x="740" y="-105.3" font-family="Times,serif" font-size="14.00" fill="#000000">b</text>
</g>
<!-- 7&#45;&gt;[] -->
<g id="edge36" class="edge">
<title>7&#45;&gt;[]</title>
<path fill="none" stroke="#000000" d="M696.438,-188.827C707.1075,-182.538 719.681,-173.9513 729,-164 740.5682,-151.647 743.6295,-147.3499 748,-131 756.9627,-97.4707 761.866,-75.9719 735,-54 710.1805,-33.7018 620.6775,-24.1827 569.182,-20.297"/>
<polygon fill="#000000" stroke="#000000" points="569.3391,-16.7993 559.1137,-19.5724 568.8366,-23.7812 569.3391,-16.7993"/>
<text text-anchor="middle" x="764.5" y="-105.3" font-family="Times,serif" font-size="14.00" fill="#000000">eps</text>
</g>
</g>
</svg>
